<svg width="87" height="85" viewBox="0 0 87 85" fill="none" xmlns="http://www.w3.org/2000/svg">
<circle cx="47.2925" cy="45.2925" r="39.2925" fill="#3F3F3F"/>
<mask id="mask0_1261_2653" style="mask-type:alpha" maskUnits="userSpaceOnUse" x="8" y="6" width="79" height="79">
<circle cx="47.2925" cy="45.2925" r="39.2925" fill="#E0E9F9"/>
</mask>
<g mask="url(#mask0_1261_2653)">
</g>
<g clip-path="url(#clip0_1261_2653)">
<path d="M51.4557 15.8076C51.6906 16.0512 51.882 16.3332 52.0215 16.6415L52.0384 16.6246L75.7166 69.964L75.6934 69.9872C76.1325 70.838 75.3978 72.5691 73.8926 74.0764C72.3874 75.5816 70.6562 76.3163 69.8055 75.8772L69.7844 75.8983L16.445 52.218L16.4619 52.199C16.1516 52.0512 15.8666 51.8718 15.628 51.6311C12.3305 48.3335 17.6779 37.6408 27.5685 27.7481C37.4632 17.8554 48.156 12.5101 51.4557 15.8076Z" fill="#FFDB5E"/>
<path d="M49 26L75.1212 68.6239L75.7166 69.9645L75.6934 69.9877C76.1325 70.8385 75.3978 72.5696 73.8926 74.0769C73.4028 74.5667 72.894 74.9383 72.3958 75.2528L41 37L49 26Z" fill="#DD7D25"/>
<path d="M27.4181 27.5846C17.5592 37.4477 12.0851 47.9611 15.1968 51.0686C18.3065 54.1804 28.8198 48.7084 38.6851 38.8495C48.5461 28.9864 54.0181 18.4688 50.9084 15.3592C47.7966 12.2495 37.2833 17.7215 27.4181 27.5846Z" fill="#EF9645"/>
<path d="M36.7545 28.7307C37.1904 29.0813 37.7478 29.2446 38.304 29.1846C40.1365 28.9861 41.6776 28.3486 42.7564 27.3416C43.8985 26.2755 44.4621 24.8441 44.308 23.4107C44.0378 20.8942 41.5129 18.5847 37.2083 19.0491C35.5342 19.2286 34.7869 18.6902 34.7616 18.4327C34.732 18.1772 35.3463 17.4911 37.0205 17.3096C38.8529 17.1111 40.394 16.4736 41.4749 15.4666C42.617 14.4005 43.1828 12.9691 43.0266 11.5357C42.7521 9.01924 40.2293 6.70968 35.929 7.17624C34.7088 7.30713 34.0649 7.0559 33.7926 6.89335C33.5751 6.76035 33.4886 6.63368 33.4801 6.55979C33.4548 6.30435 34.0607 5.61824 35.739 5.43668C36.2955 5.37613 36.8052 5.09703 37.156 4.66076C37.5067 4.22449 37.6698 3.66676 37.6095 3.11024C37.5803 2.83456 37.4969 2.56736 37.3642 2.32398C37.2314 2.08061 37.0519 1.86586 36.8359 1.69206C36.62 1.51826 36.3718 1.38884 36.1056 1.31122C35.8395 1.23361 35.5607 1.20934 35.2851 1.23979C30.9848 1.70213 29.0088 4.49513 29.2811 7.01368C29.5556 9.53435 32.0783 11.8397 36.3829 11.3773C37.6031 11.2443 38.2407 11.4977 38.5151 11.6602C38.7326 11.7911 38.8212 11.9199 38.8297 11.9917C38.8571 12.2492 38.247 12.9332 36.5687 13.1148C32.2684 13.5792 30.2924 16.3701 30.5647 18.8887C30.837 21.4072 33.3598 23.7147 37.6622 23.2481C38.8825 23.1172 39.5242 23.3706 39.7987 23.531C40.0182 23.6661 40.1027 23.7928 40.1111 23.8646C40.1386 24.12 39.5285 24.8061 37.8522 24.9877C37.4371 25.0325 37.0447 25.1994 36.7244 25.4672C36.4041 25.735 36.1705 26.0918 36.053 26.4925C35.9355 26.8931 35.9394 27.3196 36.0643 27.718C36.1891 28.1164 36.4293 28.4688 36.7545 28.7307Z" fill="#E72D38"/>
<path d="M11.2733 48.2543C7.10807 47.0784 4.23484 48.9362 3.55084 51.3745C2.86684 53.8107 4.34884 56.8951 8.51195 58.0667C10.1375 58.5227 10.6252 59.2996 10.5597 59.5466C10.488 59.7957 9.66251 60.2053 8.04117 59.7472C3.87806 58.5755 1.00484 60.4333 0.320844 62.8695C-0.367378 65.3078 1.11884 68.388 5.28406 69.5617C6.90751 70.0177 7.39729 70.7967 7.32551 71.0437C7.25373 71.2907 6.43251 71.7003 4.80906 71.2443C4.53973 71.161 4.25644 71.1326 3.97592 71.1605C3.69539 71.1885 3.42332 71.2724 3.17575 71.4073C2.92817 71.5421 2.71011 71.7252 2.53443 71.9457C2.35876 72.1661 2.22902 72.4196 2.15288 72.691C2.07673 72.9625 2.05572 73.2464 2.09109 73.5261C2.12646 73.8058 2.2175 74.0755 2.35882 74.3195C2.50013 74.5634 2.68887 74.7766 2.91391 74.9464C3.13894 75.1162 3.39571 75.2392 3.66906 75.3082C7.83006 76.4799 10.7054 74.6263 11.3936 72.1859C12.0776 69.7496 10.5935 66.6695 6.42617 65.4957C4.80062 65.0376 4.31295 64.2628 4.38473 64.0137C4.45229 63.7667 5.27562 63.3551 6.89695 63.8111C11.0643 64.9848 13.9354 63.1313 14.6215 60.6887C15.3076 58.2525 13.8235 55.1724 9.65828 53.9965C8.03695 53.5426 7.54928 52.7615 7.61684 52.5166C7.68862 52.2675 8.50984 51.858 10.1333 52.314C10.4046 52.4054 10.6917 52.4406 10.9771 52.4176C11.2625 52.3946 11.5403 52.3137 11.7934 52.1799C12.0466 52.0462 12.2699 51.8623 12.4498 51.6396C12.6297 51.4168 12.7624 51.1597 12.8398 50.8841C12.9172 50.6084 12.9377 50.3199 12.9001 50.036C12.8625 49.7522 12.7675 49.4789 12.621 49.2329C12.4745 48.987 12.2794 48.7733 12.0477 48.6051C11.816 48.4369 11.5526 48.3175 11.2733 48.2543Z" fill="#02BB0C"/>
<path d="M27.4414 42.5594C27.8786 42.5588 28.3048 42.4226 28.6614 42.1696C29.0179 41.9167 29.2872 41.5593 29.4322 41.1469C29.5772 40.7345 29.5906 40.2872 29.4708 39.8668C29.3509 39.4464 29.1036 39.0735 28.763 38.7995C28.3028 38.4301 17.325 29.8083 1.81044 32.0271C1.52976 32.0588 1.2583 32.1465 1.01214 32.2851C0.765985 32.4236 0.550137 32.6102 0.377377 32.8336C0.204618 33.0571 0.0784664 33.313 0.00638771 33.5861C-0.0656891 33.8592 -0.0822239 34.144 -0.0422382 34.4237C-0.00225067 34.7033 0.0934391 34.972 0.239176 35.214C0.384912 35.456 0.577726 35.6662 0.806196 35.8323C1.03467 35.9984 1.29414 36.117 1.56927 36.181C1.84439 36.245 2.12956 36.2532 2.40788 36.2049C16.1153 34.2585 26.0249 42.0189 26.122 42.0971C26.4965 42.3966 26.9619 42.5596 27.4414 42.5594Z" fill="#E72D38"/>
<path d="M63.8528 33.778C64.1819 33.778 64.5064 33.7011 64.8004 33.5534C65.0945 33.4057 65.35 33.1914 65.5464 32.9274C65.7429 32.6635 65.875 32.3572 65.9321 32.0332C65.9892 31.7091 65.9697 31.3762 65.8753 31.061C63.4834 23.0957 61.3153 10.3847 63.9795 7.0703C64.2772 6.69452 64.7268 6.32508 65.7571 6.40319C67.7373 6.55519 67.5494 10.7331 67.5473 10.7753C67.5205 11.055 67.5497 11.3372 67.6334 11.6054C67.7171 11.8736 67.8534 12.1225 68.0345 12.3373C68.2156 12.5521 68.4377 12.7287 68.6879 12.8565C68.9381 12.9844 69.2113 13.0611 69.4914 13.082C69.7716 13.103 70.0532 13.0678 70.3196 12.9785C70.586 12.8892 70.8319 12.7476 71.0429 12.5621C71.2539 12.3766 71.4257 12.1508 71.5483 11.898C71.6709 11.6452 71.7418 11.3704 71.7568 11.0899C71.9743 8.17863 71.0686 2.57152 66.0737 2.19364C63.8444 2.02475 61.9929 2.79952 60.6862 4.42508C55.6807 10.655 60.7622 28.7155 61.8304 32.2749C61.9611 32.7095 62.2285 33.0905 62.5928 33.3612C62.9571 33.632 63.3989 33.7781 63.8528 33.778Z" fill="#02BB0C"/>
<path d="M22.1663 23.222C20.4174 23.222 18.9997 21.8042 18.9997 20.0553C18.9997 18.3064 20.4174 16.8887 22.1663 16.8887C23.9152 16.8887 25.333 18.3064 25.333 20.0553C25.333 21.8042 23.9152 23.222 22.1663 23.222Z" fill="#02BB0C"/>
<path d="M71.7778 42.2223C69.4459 42.2223 67.5556 40.3319 67.5556 38.0001C67.5556 35.6682 69.4459 33.7778 71.7778 33.7778C74.1096 33.7778 76 35.6682 76 38.0001C76 40.3319 74.1096 42.2223 71.7778 42.2223Z" fill="#E72D38"/>
<path d="M7.389 44.3333C5.6401 44.3333 4.22233 42.9156 4.22233 41.1667C4.22233 39.4178 5.6401 38 7.389 38C9.1379 38 10.5557 39.4178 10.5557 41.1667C10.5557 42.9156 9.1379 44.3333 7.389 44.3333Z" fill="#02BB0C"/>
<path d="M26.389 69.6668C24.6401 69.6668 23.2223 68.2491 23.2223 66.5002C23.2223 64.7513 24.6401 63.3335 26.389 63.3335C28.1379 63.3335 29.5557 64.7513 29.5557 66.5002C29.5557 68.2491 28.1379 69.6668 26.389 69.6668Z" fill="#02BB0C"/>
<path d="M16.8881 12.6666C14.5563 12.6666 12.6659 10.7763 12.6659 8.44439C12.6659 6.11252 14.5563 4.22217 16.8881 4.22217C19.22 4.22217 21.1104 6.11252 21.1104 8.44439C21.1104 10.7763 19.22 12.6666 16.8881 12.6666Z" fill="#FFCC4D"/>
<path d="M7.389 21.1112C5.6401 21.1112 4.22233 19.6934 4.22233 17.9445C4.22233 16.1956 5.6401 14.7778 7.389 14.7778C9.1379 14.7778 10.5557 16.1956 10.5557 17.9445C10.5557 19.6934 9.1379 21.1112 7.389 21.1112Z" fill="#FFCC4D"/>
<path d="M13.723 29.5555C11.9741 29.5555 10.5563 28.1377 10.5563 26.3888C10.5563 24.6399 11.9741 23.2222 13.723 23.2222C15.4719 23.2222 16.8896 24.6399 16.8896 26.3888C16.8896 28.1377 15.4719 29.5555 13.723 29.5555Z" fill="#FFCC4D"/>
<path d="M60.1663 52.7782C58.4174 52.7782 56.9997 51.3604 56.9997 49.6115C56.9997 47.8626 58.4174 46.4448 60.1663 46.4448C61.9152 46.4448 63.333 47.8626 63.333 49.6115C63.333 51.3604 61.9152 52.7782 60.1663 52.7782Z" fill="#FFCC4D"/>
</g>
<defs>
<clipPath id="clip0_1261_2653">
<rect width="76" height="76" fill="white" transform="matrix(-1 0 0 1 76 0)"/>
</clipPath>
</defs>
</svg>
