<svg width="20" height="20" viewBox="0 0 20 20" fill="none" xmlns="http://www.w3.org/2000/svg">
<path d="M5.83301 8.05551C5.83301 7.46606 6.06716 6.90076 6.48396 6.48396C6.90076 6.06716 7.46606 5.83301 8.05551 5.83301H15.2772C15.569 5.83301 15.858 5.89049 16.1277 6.00219C16.3973 6.11388 16.6423 6.27758 16.8487 6.48396C17.0551 6.69034 17.2188 6.93535 17.3305 7.20499C17.4422 7.47464 17.4997 7.76365 17.4997 8.05551V15.2772C17.4997 15.569 17.4422 15.858 17.3305 16.1277C17.2188 16.3973 17.0551 16.6423 16.8487 16.8487C16.6423 17.0551 16.3973 17.2188 16.1277 17.3305C15.858 17.4422 15.569 17.4997 15.2772 17.4997H8.05551C7.76365 17.4997 7.47464 17.4422 7.20499 17.3305C6.93535 17.2188 6.69034 17.0551 6.48396 16.8487C6.27758 16.6423 6.11388 16.3973 6.00219 16.1277C5.89049 15.858 5.83301 15.569 5.83301 15.2772V8.05551Z" stroke="#CCCCCC" stroke-width="2" stroke-linecap="round" stroke-linejoin="round"/>
<path d="M3.34333 13.9475C3.0875 13.8021 2.87471 13.5916 2.72658 13.3374C2.57846 13.0832 2.50028 12.7942 2.5 12.5V4.16667C2.5 3.25 3.25 2.5 4.16667 2.5H12.5C13.125 2.5 13.465 2.82083 13.75 3.33333" stroke="#CCCCCC" stroke-width="2" stroke-linecap="round" stroke-linejoin="round"/>
</svg>
