<svg width="40" height="40" viewBox="0 0 40 40" fill="none" xmlns="http://www.w3.org/2000/svg">
<path d="M20 2.5C21.6064 2.5 23.1559 2.70508 24.6484 3.11523C26.141 3.52539 27.5309 4.11784 28.8184 4.89258C30.1058 5.66732 31.285 6.57878 32.356 7.62695C33.4269 8.67513 34.3441 9.85433 35.1074 11.1646C35.8708 12.4748 36.4575 13.8704 36.8677 15.3516C37.2778 16.8327 37.4886 18.3822 37.5 20C37.5 21.6064 37.2949 23.1559 36.8848 24.6484C36.4746 26.141 35.8822 27.5309 35.1074 28.8184C34.3327 30.1058 33.4212 31.285 32.373 32.356C31.3249 33.4269 30.1457 34.3441 28.8354 35.1074C27.5252 35.8708 26.1296 36.4575 24.6484 36.8677C23.1673 37.2778 21.6178 37.4886 20 37.5C18.3936 37.5 16.8441 37.2949 15.3516 36.8848C13.859 36.4746 12.4691 35.8822 11.1816 35.1074C9.89421 34.3327 8.71501 33.4212 7.64404 32.373C6.57308 31.3249 5.65592 30.1457 4.89258 28.8354C4.12923 27.5252 3.54248 26.1296 3.13232 24.6484C2.72217 23.1673 2.51139 21.6178 2.5 20C2.5 18.3936 2.70508 16.8441 3.11523 15.3516C3.52539 13.859 4.11784 12.4691 4.89258 11.1816C5.66732 9.89421 6.57878 8.71501 7.62695 7.64404C8.67513 6.57308 9.85433 5.65592 11.1646 4.89258C12.4748 4.12923 13.8704 3.54248 15.3516 3.13232C16.8327 2.72217 18.3822 2.51139 20 2.5ZM21.9312 20L27.7759 14.1553L25.8447 12.2241L20 18.0688L14.1553 12.2241L12.2241 14.1553L18.0688 20L12.2241 25.8447L14.1553 27.7759L20 21.9312L25.8447 27.7759L27.7759 25.8447L21.9312 20Z" fill="#E72D38"/>
</svg>
