<svg width="111" height="101" viewBox="0 0 111 101" fill="none" xmlns="http://www.w3.org/2000/svg">
<circle cx="49.2873" cy="49.1964" r="49.1154" fill="#3F3F3F"/>
<mask id="mask0_698_4006" style="mask-type:alpha" maskUnits="userSpaceOnUse" x="0" y="0" width="99" height="99">
<circle cx="49.2873" cy="49.1964" r="49.1154" fill="#E0E9F9"/>
</mask>
<g mask="url(#mask0_698_4006)">
<rect x="3.44629" y="8.2666" width="92.5007" height="72.0359" rx="11.9731" fill="#4FB4F3"/>
<rect x="3.44629" y="27.9131" width="92.5007" height="6.95801" fill="#2589D4"/>
<rect x="14.0879" y="43.4658" width="26.1949" height="7.36731" rx="3.68365" fill="#2589D4"/>
<circle cx="77.9385" cy="69.6612" r="27.8321" fill="#3C3C3C"/>
</g>
<circle cx="77.9386" cy="69.6612" r="24.5577" fill="#E72D38"/>
<g filter="url(#filter0_d_698_4006)">
<path d="M69.3208 57.9846L77.938 66.6015L86.5106 58.0292C86.7 57.8277 86.9281 57.6664 87.1813 57.5552C87.4345 57.444 87.7075 57.385 87.9841 57.3818C88.5761 57.3818 89.144 57.617 89.5626 58.0357C89.9813 58.4543 90.2165 59.0221 90.2165 59.6142C90.2217 59.8879 90.1709 60.1598 90.0673 60.4131C89.9636 60.6665 89.8093 60.896 89.6138 61.0875L80.9295 69.6598L89.6138 78.3437C89.9817 78.7036 90.1975 79.191 90.2165 79.7054C90.2165 80.2975 89.9813 80.8653 89.5626 81.2839C89.144 81.7026 88.5761 81.9378 87.9841 81.9378C87.6995 81.9496 87.4157 81.9021 87.1505 81.7983C86.8853 81.6946 86.6446 81.5368 86.4437 81.335L77.938 72.7181L69.3431 81.3127C69.1545 81.5075 68.9291 81.6631 68.6801 81.7704C68.431 81.8776 68.1632 81.9345 67.892 81.9378C67.2999 81.9378 66.7321 81.7026 66.3134 81.2839C65.8947 80.8653 65.6595 80.2975 65.6595 79.7054C65.6543 79.4317 65.7051 79.1599 65.8088 78.9065C65.9124 78.6531 66.0668 78.4236 66.2623 78.2321L74.9465 69.6598L66.2623 60.9759C65.8944 60.616 65.6786 60.1286 65.6595 59.6142C65.6595 59.0221 65.8947 58.4543 66.3134 58.0357C66.7321 57.617 67.2999 57.3818 67.892 57.3818C68.4278 57.3885 68.9412 57.6051 69.3208 57.9846Z" fill="white"/>
</g>
<g clip-path="url(#clip0_698_4006)">
<rect x="3.44629" y="8.2666" width="92.5007" height="72.0359" rx="11.9731" fill="#4FB4F3"/>
<rect x="3.44629" y="27.9131" width="92.5007" height="6.95801" fill="#2589D4"/>
<rect x="14.0879" y="43.4658" width="26.1949" height="7.36731" rx="3.68365" fill="#2589D4"/>
</g>
<line x1="98.2989" y1="88.1562" x2="108.065" y2="95.5277" stroke="#E72D38" stroke-opacity="0.6" stroke-width="1.63718" stroke-linecap="round"/>
<line x1="101.017" y1="83.774" x2="109.4" y2="85.6369" stroke="#E72D38" stroke-opacity="0.6" stroke-width="1.63718" stroke-linecap="round"/>
<line x1="94.6143" y1="92.0435" x2="98.7627" y2="98.9575" stroke="#E72D38" stroke-opacity="0.6" stroke-width="1.63718" stroke-linecap="round"/>
<defs>
<filter id="filter0_d_698_4006" x="64.6359" y="56.3586" width="30.697" height="30.697" filterUnits="userSpaceOnUse" color-interpolation-filters="sRGB">
<feFlood flood-opacity="0" result="BackgroundImageFix"/>
<feColorMatrix in="SourceAlpha" type="matrix" values="0 0 0 0 0 0 0 0 0 0 0 0 0 0 0 0 0 0 127 0" result="hardAlpha"/>
<feOffset dx="2.04647" dy="2.04647"/>
<feGaussianBlur stdDeviation="1.53486"/>
<feComposite in2="hardAlpha" operator="out"/>
<feColorMatrix type="matrix" values="0 0 0 0 0 0 0 0 0 0 0 0 0 0 0 0 0 0 0.45 0"/>
<feBlend mode="normal" in2="BackgroundImageFix" result="effect1_dropShadow_698_4006"/>
<feBlend mode="normal" in="SourceGraphic" in2="effect1_dropShadow_698_4006" result="shape"/>
</filter>
<clipPath id="clip0_698_4006">
<rect width="44.2039" height="42.5667" fill="white" transform="translate(3.44629 8.2666)"/>
</clipPath>
</defs>
</svg>
