<svg width="105" height="96" viewBox="0 0 105 96" fill="none" xmlns="http://www.w3.org/2000/svg">
<circle cx="47.5547" cy="48" r="43.5556" fill="#3F3F3F" stroke="#E72D38" stroke-width="7.11111"/>
<rect x="23.834" y="12.2021" width="65.0561" height="44.1452" rx="7.41832" fill="#4FB4F3"/>
<rect x="23.834" y="23.8193" width="65.0561" height="4.64686" fill="#2589D4"/>
<rect x="30.1328" y="33.6616" width="16.2299" height="4.56467" rx="2.28234" fill="#2589D4"/>
<rect x="7.11133" y="38.7637" width="65.0561" height="44.1452" rx="7.41832" fill="#2589D4"/>
<rect x="13.3066" y="46.5083" width="40.2728" height="7.74477" fill="#4FB4F3"/>
<rect x="13.3066" y="60.4487" width="11.6172" height="4.64686" fill="#4FB4F3"/>
<rect x="26.4727" y="60.4487" width="11.6172" height="4.64686" fill="#4FB4F3"/>
<rect x="39.6387" y="60.4487" width="11.6172" height="4.64686" fill="#4FB4F3"/>
<rect x="52.8047" y="60.4487" width="11.6172" height="4.64686" fill="#4FB4F3"/>
<line x1="18.5142" y1="16.1528" x2="78.0697" y2="75.7084" stroke="#E72D38" stroke-width="7.11111"/>
<line x1="89.8763" y1="13.2964" x2="99.5244" y2="5.77046" stroke="#E72D38" stroke-opacity="0.6" stroke-width="1.63718" stroke-linecap="round"/>
<line x1="86.3458" y1="9.53735" x2="90.315" y2="1.92185" stroke="#E72D38" stroke-opacity="0.6" stroke-width="1.63718" stroke-linecap="round"/>
<line x1="92.6771" y1="17.8619" x2="100.429" y2="15.6443" stroke="#E72D38" stroke-opacity="0.6" stroke-width="1.63718" stroke-linecap="round"/>
</svg>
