<svg width="20" height="20" viewBox="0 0 20 20" fill="none" xmlns="http://www.w3.org/2000/svg">
<path d="M10 2.875C12.8822 2.87501 15.4268 4.56875 16.5566 7.21191L16.6611 7.46973L16.665 7.48145L16.668 7.49414L16.6709 7.51465C16.972 8.30261 17.125 9.13816 17.125 10C17.125 10.854 16.9755 11.6983 16.6807 12.5088L16.6621 12.5576L16.6328 12.6396H16.6172C15.52 15.3678 12.9355 17.125 10 17.125C7.03265 17.125 4.43522 15.3387 3.37207 12.5713C3.35663 12.5507 3.34427 12.529 3.33691 12.5049L3.33594 12.5059C3.03003 11.7125 2.875 10.8689 2.875 10C2.87503 9.14597 3.02453 8.30172 3.31934 7.49121L3.33789 7.44238L3.36719 7.36035H3.38281C4.48003 4.63217 7.06449 2.875 10 2.875ZM10.3721 16.3359C10.8437 16.2036 11.3189 15.8219 11.7441 15.2236C12.1886 14.5985 12.5674 13.7529 12.8252 12.7627H10.3721V16.3359ZM7.17285 12.7451C7.43203 13.7518 7.80639 14.5984 8.24805 15.2197C8.67093 15.8145 9.14661 16.1897 9.62695 16.3193V12.7451H7.17285ZM4.25195 12.7627C5.00044 14.3152 6.33651 15.4963 7.95117 16.0518C7.26702 15.2634 6.72192 14.1102 6.39746 12.7627H4.25195ZM13.6016 12.7451C13.275 14.1034 12.73 15.2584 12.0479 16.04C13.6633 15.4951 15.0008 14.3119 15.749 12.7451H13.6016ZM13.8008 8.00098C13.8911 8.55932 13.9385 9.16663 13.9385 9.81055C13.9385 10.5951 13.874 11.3365 13.752 12.0186H16.0547C16.2609 11.3841 16.3627 10.7288 16.3633 10.0186L16.3574 9.75293C16.3326 9.16222 16.2245 8.57497 16.0371 8.00098H13.8008ZM6.93359 8.00098C6.83788 8.62062 6.78712 9.22873 6.78711 9.81055C6.78711 10.553 6.85881 11.2942 6.99609 12.0176H9.62695V8.00098H6.93359ZM10.3721 12H12.9854C13.1227 11.2769 13.1943 10.5348 13.1943 9.79199C13.1943 9.21746 13.1458 8.62441 13.0488 7.98242H10.3721V12ZM3.94531 7.98242C3.72982 8.64287 3.61918 9.32035 3.61914 10C3.61914 10.6852 3.72953 11.3572 3.94434 12H6.2334C6.10709 11.2423 6.043 10.5179 6.04297 9.79297C6.04297 9.21505 6.09066 8.62026 6.18457 7.98242H3.94531ZM12.168 4.00391C12.8493 4.78354 13.378 5.91564 13.6748 7.23828H15.75C15.0309 5.7337 13.7384 4.57363 12.168 4.00391ZM10.3721 7.23828H12.917C12.6729 6.22228 12.2985 5.37057 11.8428 4.74902C11.4032 4.14958 10.8964 3.77531 10.3721 3.65625V7.23828ZM9.62695 3.6582C9.10245 3.78333 8.59643 4.16107 8.15723 4.75977C7.70151 5.3811 7.32704 6.22935 7.08301 7.23828H9.62695V3.6582ZM7.83008 4.00391C6.26022 4.57367 4.96899 5.73418 4.25 7.23828H6.3252C6.62191 5.91605 7.14897 4.78349 7.83008 4.00391Z" fill="#147BFF" stroke="#147BFF" stroke-width="0.25"/>
</svg>
