<svg width="114" height="23" viewBox="0 0 114 23" fill="none" xmlns="http://www.w3.org/2000/svg">
<path d="M36.1266 6.11813C32.995 6.11813 30.4367 8.44188 30.4367 11.648C30.4367 14.8281 32.995 17.1763 36.1266 17.1763C39.265 17.1763 41.8233 14.8281 41.8233 11.648C41.8233 8.44188 39.265 6.11813 36.1266 6.11813ZM36.1266 14.9988C34.4083 14.9988 32.93 13.6159 32.93 11.648C32.93 9.65413 34.4083 8.29563 36.1266 8.29563C37.845 8.29563 39.33 9.65413 39.33 11.648C39.33 13.6159 37.845 14.9988 36.1266 14.9988V14.9988ZM23.7117 6.11813C20.5733 6.11813 18.0217 8.44188 18.0217 11.648C18.0217 14.8281 20.5733 17.1763 23.7117 17.1763C26.8483 17.1763 29.4017 14.8281 29.4017 11.648C29.4017 8.44188 26.8483 6.11813 23.7117 6.11813ZM23.7117 14.9988C21.9917 14.9988 20.5083 13.6159 20.5083 11.648C20.5083 9.65413 21.9917 8.29563 23.7117 8.29563C25.43 8.29563 26.9083 9.65413 26.9083 11.648C26.9083 13.6159 25.43 14.9988 23.7117 14.9988ZM8.93833 7.813V10.1628H14.6933C14.525 11.4758 14.075 12.441 13.385 13.1138C12.545 13.9263 11.2367 14.8281 8.93833 14.8281C5.39666 14.8281 2.62333 12.0413 2.62333 8.58813C2.62333 5.13501 5.39666 2.34813 8.93833 2.34813C10.8533 2.34813 12.2467 3.07776 13.275 4.02351L14.9733 2.36763C13.535 1.02863 11.6217 5.35324e-06 8.93833 5.35324e-06C4.08166 5.35324e-06 0 3.85288 0 8.58813C0 13.3234 4.08166 17.1763 8.93833 17.1763C11.5633 17.1763 13.535 16.3378 15.085 14.7648C16.6733 13.2161 17.1683 11.0386 17.1683 9.28038C17.1683 8.73438 17.1217 8.23225 17.0383 7.813H8.93833ZM69.3483 9.63463C68.88 8.398 67.435 6.11813 64.4916 6.11813C61.575 6.11813 59.1466 8.359 59.1466 11.648C59.1466 14.7453 61.55 17.1763 64.7716 17.1763C67.3766 17.1763 68.88 15.6276 69.4983 14.7258L67.565 13.4696C66.92 14.3894 66.0416 14.9988 64.7716 14.9988C63.51 14.9988 62.605 14.4349 62.025 13.3234L69.61 10.2635L69.3483 9.63463V9.63463ZM61.615 11.4758C61.55 9.34375 63.3133 8.25175 64.5766 8.25175C65.5666 8.25175 66.4066 8.73438 66.6866 9.425L61.615 11.4758V11.4758ZM55.45 16.8399H57.9433V0.589882H55.45V16.8399ZM51.3666 7.34988H51.2833C50.7233 6.70313 49.655 6.11813 48.3017 6.11813C45.4617 6.11813 42.865 8.54913 42.865 11.6659C42.865 14.7648 45.4617 17.1763 48.3017 17.1763C49.655 17.1763 50.7233 16.5864 51.2833 15.9201H51.3666V16.7131C51.3666 18.8273 50.2083 19.9631 48.34 19.9631C46.8166 19.9631 45.8716 18.8906 45.4817 17.9888L43.3133 18.8711C43.9383 20.3369 45.5933 22.1406 48.34 22.1406C51.2633 22.1406 53.73 20.4636 53.73 16.3833V6.4545H51.3666V7.34988V7.34988ZM48.515 14.9988C46.7966 14.9988 45.3583 13.5964 45.3583 11.6659C45.3583 9.7175 46.7966 8.29563 48.515 8.29563C50.2083 8.29563 51.5433 9.7175 51.5433 11.6659C51.5433 13.5964 50.2083 14.9988 48.515 14.9988V14.9988ZM81.0216 0.589882H75.0583V16.8399H77.545V10.6828H81.0216C83.7833 10.6828 86.4916 8.73438 86.4916 5.6355C86.4916 2.53826 83.7766 0.589882 81.0216 0.589882V0.589882ZM81.0866 8.42238H77.545V2.85026H81.0866C82.9433 2.85026 84.0033 4.35338 84.0033 5.6355C84.0033 6.89325 82.9433 8.42238 81.0866 8.42238ZM96.4583 6.08725C94.6616 6.08725 92.7933 6.86075 92.025 8.57513L94.2316 9.477C94.7066 8.57513 95.58 8.28263 96.5033 8.28263C97.7933 8.28263 99.1016 9.03825 99.1216 10.3724V10.543C98.6716 10.2895 97.7083 9.91413 96.5233 9.91413C94.1466 9.91413 91.725 11.1898 91.725 13.5704C91.725 15.7479 93.6716 17.1503 95.86 17.1503C97.5333 17.1503 98.4566 16.4141 99.0366 15.5578H99.1216V16.8139H101.523V10.5804C101.523 7.69926 99.3166 6.08725 96.4583 6.08725ZM96.1583 14.9923C95.345 14.9923 94.2116 14.599 94.2116 13.6159C94.2116 12.3581 95.625 11.8755 96.8483 11.8755C97.9433 11.8755 98.4566 12.1111 99.1216 12.4215C98.9266 13.9263 97.5983 14.9923 96.1583 14.9923V14.9923ZM110.273 6.44313L107.415 13.4875H107.33L104.375 6.44313H101.693L106.133 16.2874L103.6 21.7653H106.198L113.04 6.44313H110.273V6.44313ZM87.8583 16.8399H90.3516V0.589882H87.8583V16.8399Z" fill="black"/>
</svg>
