<svg width="36" height="36" viewBox="0 0 36 36" fill="none" xmlns="http://www.w3.org/2000/svg">
<rect width="36" height="36" rx="18" fill="#363638"/>
<path d="M12.133 26.9998C10.955 26.9998 10 26.0198 10 24.8098V16.0078C10 15.3428 10.295 14.7128 10.8 14.2978L16.667 9.47979C17.0419 9.16937 17.5133 8.99951 18 8.99951C18.4867 8.99951 18.9581 9.16937 19.333 9.47979L25.199 14.2978C25.705 14.7128 26 15.3428 26 16.0078V24.8098C26 26.0198 25.045 26.9998 23.867 26.9998H12.133Z" stroke="#E72D38" stroke-width="1.5" stroke-linecap="round" stroke-linejoin="round"/>
<path d="M15.5 27V21.5C15.5 20.9696 15.7107 20.4609 16.0858 20.0858C16.4609 19.7107 16.9696 19.5 17.5 19.5H18.5C19.0304 19.5 19.5391 19.7107 19.9142 20.0858C20.2893 20.4609 20.5 20.9696 20.5 21.5V27" stroke="#E72D38" stroke-width="1.5" stroke-linecap="round" stroke-linejoin="round"/>
</svg>
