<svg width="166" height="150" viewBox="0 0 166 150" fill="none" xmlns="http://www.w3.org/2000/svg">
<circle cx="74.0366" cy="73.5" r="73.4995" fill="#3F3F3F"/>
<mask id="mask0_829_5917" style="mask-type:alpha" maskUnits="userSpaceOnUse" x="0" y="0" width="148" height="147">
<circle cx="74.0366" cy="73.5" r="73.4995" fill="#E0E9F9"/>
</mask>
<g mask="url(#mask0_829_5917)">
<circle cx="75.5367" cy="76.4996" r="58.4996" fill="#2589D4"/>
<circle cx="108.185" cy="108.87" r="41.7478" fill="#3C3C3C"/>
<path d="M73.2425 134.911C73.89 134.911 74.5325 134.901 75.1699 134.881C73.0885 132.359 71.3108 129.6 69.8733 126.663C65.806 125.092 61.5415 120.646 57.8991 112.845C56.1247 108.955 54.7074 104.911 53.6649 100.765H66.3524C66.838 98.134 67.5564 95.6046 68.5074 93.1764H52.041C50.9912 86.9077 50.4683 80.562 50.4779 74.206C50.4779 67.5056 51.0318 61.1164 52.041 55.2355H94.4439C95.142 59.3407 95.6276 63.6963 95.8553 68.2341C98.2835 67.536 100.793 67.0604 103.383 66.8075C103.151 62.9324 102.733 59.0706 102.131 55.2355H122.869C124.774 60.2134 125.95 65.5554 126.269 71.1252C129.016 72.5214 131.565 74.1908 133.918 76.1334C134.301 64.051 131.069 52.1291 124.635 41.8952C118.201 31.6613 108.858 23.5813 97.8028 18.6906C86.7478 13.7999 74.4844 12.3211 62.5837 14.4436C50.683 16.5662 39.6869 22.1935 31.0044 30.6045C22.3219 39.0156 16.3483 49.8273 13.8489 61.6546C11.3495 73.4819 12.4381 85.7861 16.9753 96.9908C21.5126 108.195 29.2918 117.79 39.3162 124.546C49.3407 131.302 61.1539 134.911 73.2425 134.911ZM73.2425 21.0887C78.2279 21.0887 83.9191 25.5657 88.5858 35.567C90.2324 39.103 91.6666 43.1703 92.8276 47.6473H53.6573C54.8183 43.1703 56.2525 39.103 57.9067 35.567C62.5583 25.5657 68.2494 21.0887 73.2425 21.0887ZM51.0242 32.3572C48.7834 37.2653 47.0469 42.3883 45.8415 47.6473H27.2276C33.6328 36.5743 43.8089 28.176 55.8958 23.9874C54.0671 26.4915 52.4356 29.3295 51.0242 32.3572ZM44.3466 55.2355C43.3655 61.5112 42.8783 67.8541 42.8897 74.206C42.8897 80.8077 43.3981 87.1969 44.3542 93.1764H23.6157C21.3041 87.119 20.1211 80.6895 20.1251 74.206C20.1251 67.5284 21.362 61.124 23.6157 55.2355H44.3466ZM45.8415 100.765C47.177 106.403 48.9299 111.555 51.0242 116.055C52.4356 119.082 54.0671 121.92 55.8958 124.425C43.8089 120.236 33.6328 111.838 27.2276 100.765H45.8415ZM90.5891 23.9874C102.676 28.176 112.852 36.5743 119.257 47.6473H100.636C99.4304 42.3883 97.6939 37.2653 95.4531 32.3572C94.1034 29.4164 92.4719 26.6134 90.5815 23.9874M141.536 108.353C141.536 117.409 137.939 126.094 131.535 132.498C125.131 138.902 116.446 142.5 107.389 142.5C98.333 142.5 89.6476 138.902 83.2439 132.498C76.8401 126.094 73.2425 117.409 73.2425 108.353C73.2425 99.2965 76.8401 90.6111 83.2439 84.2074C89.6476 77.8036 98.333 74.206 107.389 74.206C116.446 74.206 125.131 77.8036 131.535 84.2074C137.939 90.6111 141.536 99.2965 141.536 108.353ZM111.183 93.1764C111.183 92.1702 110.784 91.2051 110.072 90.4936C109.361 89.7821 108.396 89.3823 107.389 89.3823C106.383 89.3823 105.418 89.7821 104.707 90.4936C103.995 91.2051 103.595 92.1702 103.595 93.1764V104.559H92.213C91.2067 104.559 90.2416 104.958 89.5301 105.67C88.8186 106.381 88.4189 107.347 88.4189 108.353C88.4189 109.359 88.8186 110.324 89.5301 111.036C90.2416 111.747 91.2067 112.147 92.213 112.147H103.595V123.529C103.595 124.535 103.995 125.5 104.707 126.212C105.418 126.924 106.383 127.323 107.389 127.323C108.396 127.323 109.361 126.924 110.072 126.212C110.784 125.5 111.183 124.535 111.183 123.529V112.147H122.566C123.572 112.147 124.537 111.747 125.249 111.036C125.96 110.324 126.36 109.359 126.36 108.353C126.36 107.347 125.96 106.381 125.249 105.67C124.537 104.958 123.572 104.559 122.566 104.559H111.183V93.1764Z" fill="#4FB4F3"/>
</g>
<line x1="147.73" y1="132.114" x2="162.379" y2="143.171" stroke="#E72D38" stroke-opacity="0.6" stroke-width="2.45575" stroke-linecap="round"/>
<line x1="151.805" y1="125.54" x2="164.38" y2="128.335" stroke="#E72D38" stroke-opacity="0.6" stroke-width="2.45575" stroke-linecap="round"/>
<line x1="142.202" y1="137.945" x2="148.425" y2="148.316" stroke="#E72D38" stroke-opacity="0.6" stroke-width="2.45575" stroke-linecap="round"/>
<circle cx="109.688" cy="110.37" r="36.8363" fill="#E72D38"/>
<g clip-path="url(#clip0_829_5917)">
<g filter="url(#filter0_d_829_5917)">
<path d="M107.789 103.5H112.289V114.749H107.789V103.5ZM107.787 116.999H112.287V121.499H107.787V116.999Z" fill="white"/>
</g>
<g filter="url(#filter1_d_829_5917)">
<path d="M114.013 90.4505C113.23 88.9768 111.704 88.061 110.035 88.061C108.365 88.061 106.84 88.9768 106.057 90.4528L89.5464 121.644C89.1809 122.33 88.9999 123.098 89.0212 123.874C89.0425 124.651 89.2654 125.408 89.6679 126.072C90.0648 126.74 90.6293 127.292 91.3053 127.674C91.9814 128.056 92.7456 128.255 93.5221 128.25H126.547C128.14 128.25 129.583 127.436 130.404 126.072C130.806 125.408 131.029 124.651 131.051 123.874C131.072 123.098 130.891 122.33 130.525 121.644L114.013 90.4505ZM93.5221 123.75L110.035 92.5588L126.559 123.75H93.5221Z" fill="white"/>
</g>
</g>
<defs>
<filter id="filter0_d_829_5917" x="106.559" y="102.272" width="11.8692" height="25.3673" filterUnits="userSpaceOnUse" color-interpolation-filters="sRGB">
<feFlood flood-opacity="0" result="BackgroundImageFix"/>
<feColorMatrix in="SourceAlpha" type="matrix" values="0 0 0 0 0 0 0 0 0 0 0 0 0 0 0 0 0 0 127 0" result="hardAlpha"/>
<feOffset dx="2.45575" dy="2.45575"/>
<feGaussianBlur stdDeviation="1.84181"/>
<feComposite in2="hardAlpha" operator="out"/>
<feColorMatrix type="matrix" values="0 0 0 0 0 0 0 0 0 0 0 0 0 0 0 0 0 0 0.45 0"/>
<feBlend mode="normal" in2="BackgroundImageFix" result="effect1_dropShadow_829_5917"/>
<feBlend mode="normal" in="SourceGraphic" in2="effect1_dropShadow_829_5917" result="shape"/>
</filter>
<filter id="filter1_d_829_5917" x="87.7917" y="86.8332" width="49.4005" height="47.5567" filterUnits="userSpaceOnUse" color-interpolation-filters="sRGB">
<feFlood flood-opacity="0" result="BackgroundImageFix"/>
<feColorMatrix in="SourceAlpha" type="matrix" values="0 0 0 0 0 0 0 0 0 0 0 0 0 0 0 0 0 0 127 0" result="hardAlpha"/>
<feOffset dx="2.45575" dy="2.45575"/>
<feGaussianBlur stdDeviation="1.84181"/>
<feComposite in2="hardAlpha" operator="out"/>
<feColorMatrix type="matrix" values="0 0 0 0 0 0 0 0 0 0 0 0 0 0 0 0 0 0 0.45 0"/>
<feBlend mode="normal" in2="BackgroundImageFix" result="effect1_dropShadow_829_5917"/>
<feBlend mode="normal" in="SourceGraphic" in2="effect1_dropShadow_829_5917" result="shape"/>
</filter>
<clipPath id="clip0_829_5917">
<rect width="53.9996" height="53.9996" fill="white" transform="translate(83.0371 81)"/>
</clipPath>
</defs>
</svg>
