<svg width="29" height="63" viewBox="0 0 29 63" fill="none" xmlns="http://www.w3.org/2000/svg">
<path fill-rule="evenodd" clip-rule="evenodd" d="M27.1369 1.26117C26.6438 1.06937 25.1318 0.574751 23.4462 1.06544C23.0332 1.19462 22.6106 1.37765 22.1977 1.62632C21.795 1.88982 21.4053 2.2238 21.0487 2.63099C20.7077 3.05876 20.3937 3.55307 20.1565 4.14541C20.0413 4.44582 19.942 4.76589 19.8619 5.10623C19.8219 5.27655 19.7869 5.45171 19.7569 5.63171C19.7303 5.81534 19.7106 6.00623 19.6961 6.20075C19.8897 6.20559 20.0755 6.2056 20.2564 6.20378C20.4403 6.20529 20.6176 6.20317 20.7888 6.19682C21.131 6.18441 21.448 6.15689 21.743 6.11454C22.3392 6.0383 22.8611 5.92062 23.307 5.74274C23.768 5.58603 24.1586 5.37549 24.4998 5.13105C24.8508 4.90174 25.1491 4.63338 25.4074 4.34235C26.449 3.21848 26.9693 1.80208 27.1369 1.26117Z" fill="url(#paint0_linear_537_1032)"/>
<path fill-rule="evenodd" clip-rule="evenodd" d="M10.554 59.2143C10.9664 59.6173 11.8213 60.3343 13.0026 61.0195C13.6044 61.3486 14.2632 61.6962 15.0144 61.9494C15.3862 62.0804 15.7713 62.1993 16.1661 62.3007C16.5633 62.399 16.9802 62.4674 17.3983 62.5197C19.0709 62.7309 20.8921 62.4967 22.5778 61.5994C23.4158 61.1626 24.2413 60.5255 25.0007 59.7316C25.7639 58.9324 26.474 57.9519 27.1368 56.7745C24.8815 55.954 22.9472 55.5565 21.1405 55.4848C19.3544 55.3959 17.7026 55.6461 16.2493 56.0639C14.7993 56.4789 13.5263 57.0988 12.5585 57.6926C11.5841 58.2898 10.8947 58.8846 10.554 59.2143Z" fill="url(#paint1_linear_537_1032)"/>
<path fill-rule="evenodd" clip-rule="evenodd" d="M26.8465 42.5809C27.0201 42.7814 27.3505 43.1574 27.6587 43.7577C27.8245 44.0441 27.9646 44.4165 28.1164 44.8125C28.1891 45.0155 28.2556 45.2361 28.3146 45.4763C28.3757 45.7135 28.4383 45.9567 28.4867 46.2278C28.6807 47.3117 28.7814 48.6564 28.6307 50.3923C28.5491 51.2705 28.422 52.208 28.1851 53.2762C27.9504 54.3384 27.6184 55.5066 27.1368 56.7745C25.0621 55.5347 23.9038 53.9021 23.4044 52.3405C22.9125 50.7517 23.0468 49.2318 23.4715 47.895C23.8993 46.5536 24.583 45.417 25.2452 44.5013C25.9044 43.5925 26.52 42.9248 26.8465 42.5809Z" fill="url(#paint2_linear_537_1032)"/>
<path fill-rule="evenodd" clip-rule="evenodd" d="M3.98969 49.5552C4.12885 49.7845 4.33396 50.1182 4.61924 50.506C4.91208 50.8887 5.27783 51.3304 5.71195 51.7887C6.15696 52.2388 6.68184 52.6972 7.26268 53.1295C7.86591 53.5442 8.51663 53.9408 9.23966 54.2428C10.6845 54.8493 12.3529 55.1222 14.1066 54.7616C14.9861 54.5801 15.8788 54.2503 16.7776 53.7454C17.6858 53.232 18.5973 52.5456 19.5206 51.6722C17.7175 50.3197 16.0867 49.4423 14.4875 48.9017C14.0915 48.7647 13.6898 48.6561 13.2998 48.5608C12.9141 48.4625 12.529 48.3853 12.1469 48.3272C11.3767 48.2153 10.6431 48.1602 9.93425 48.1639C9.22575 48.1672 8.54205 48.2292 7.9125 48.3239C7.28658 48.4159 6.70634 48.546 6.19024 48.6924C5.15682 48.9837 4.38206 49.3446 3.98969 49.5552Z" fill="url(#paint3_linear_537_1032)"/>
<path fill-rule="evenodd" clip-rule="evenodd" d="M22.9714 38.7235C23.0313 38.8351 23.1039 39.0058 23.1825 39.2245C23.2697 39.439 23.3544 39.7061 23.4158 40.0274C23.489 40.3417 23.551 40.7029 23.5676 41.1252C23.6079 41.5312 23.5946 42.0059 23.5519 42.5247C23.4642 43.5621 23.1974 44.829 22.6041 46.3522C22.3089 47.111 21.9225 47.9411 21.4176 48.8353C20.9206 49.7202 20.3029 50.6715 19.5206 51.6722C17.9968 49.9948 17.3926 48.2152 17.3572 46.6684C17.3505 46.2778 17.3687 45.9066 17.4243 45.5436C17.4842 45.1775 17.5698 44.8275 17.6769 44.4938C17.8848 43.8304 18.2036 43.2154 18.566 42.6648C18.9288 42.1139 19.3345 41.6268 19.7583 41.1921C20.1864 40.7553 20.6232 40.3753 21.0361 40.0483C21.8617 39.3954 22.5884 38.9501 22.9714 38.7235Z" fill="url(#paint4_linear_537_1032)"/>
<path fill-rule="evenodd" clip-rule="evenodd" d="M0.409878 38.5715C0.472197 38.8096 0.571424 39.1547 0.71724 39.5716C0.878182 39.9852 1.08874 40.4701 1.35617 40.9874C1.90192 42.0181 2.72085 43.171 3.84562 44.0967C4.96828 45.0225 6.38711 45.708 8.04947 45.8571C8.87052 45.9388 9.77204 45.8768 10.7174 45.6671C11.6643 45.4575 12.6638 45.0948 13.7266 44.5678C13.107 43.7138 12.4935 42.9838 11.8694 42.3521C11.5642 42.0332 11.2465 41.7434 10.9256 41.4763C10.6179 41.2034 10.3011 40.9554 9.97775 40.7291C8.6999 39.82 7.3691 39.2313 6.10093 38.8664C4.81854 38.5052 3.61057 38.3727 2.60861 38.3685C1.60636 38.363 0.81677 38.4853 0.409878 38.5715Z" fill="url(#paint5_linear_537_1032)"/>
<path fill-rule="evenodd" clip-rule="evenodd" d="M20.2768 33.8261C20.301 33.9468 20.3273 34.1244 20.3367 34.3503C20.3609 34.5718 20.3703 34.8404 20.3449 35.1517C20.307 35.771 20.1676 36.5436 19.8085 37.4576C19.4497 38.3718 18.8764 39.4391 17.9338 40.6458C17.4512 41.2536 16.8961 41.8844 16.2055 42.5445C15.516 43.2034 14.701 43.8868 13.7266 44.5678C13.2786 43.6112 13.0365 42.6897 12.9542 41.8384C12.9195 41.4094 12.9146 41.0022 12.9427 40.6144C12.9842 40.2211 13.0532 39.8496 13.146 39.4996C13.5318 38.0928 14.351 37.0225 15.2933 36.222C16.2218 35.4252 17.283 34.8858 18.1942 34.5119C19.1057 34.1398 19.8741 33.9292 20.2768 33.8261Z" fill="url(#paint6_linear_537_1032)"/>
<path fill-rule="evenodd" clip-rule="evenodd" d="M0 28.3747C0.00423531 28.5988 0.0184541 28.9256 0.0583871 29.3261C0.0783535 29.5264 0.104974 29.7451 0.140067 29.978C0.178185 30.2113 0.234454 30.4584 0.296471 30.7165C0.537581 31.7478 1.00286 32.947 1.77913 34.0234C2.17907 34.56 2.62892 35.0689 3.18737 35.5066C3.74704 35.9444 4.38113 36.3159 5.0969 36.5891C6.55778 37.1339 8.33721 37.2682 10.5039 36.8647C9.82351 35.0256 9.04451 33.6234 8.10367 32.5026C7.16917 31.3839 6.13273 30.5489 5.05454 29.9327C4.00661 29.3161 2.93719 28.9237 2.03204 28.6929C1.12689 28.4606 0.386926 28.3907 0 28.3747Z" fill="url(#paint7_linear_537_1032)"/>
<path fill-rule="evenodd" clip-rule="evenodd" d="M18.995 28.6702C18.9917 28.7894 18.9787 28.9628 18.9403 29.1775C18.9209 29.2849 18.8955 29.4023 18.8613 29.5291C18.8305 29.6555 18.8005 29.7908 18.7557 29.9339C18.5703 30.5077 18.2702 31.2002 17.7257 31.962C17.4655 32.341 17.1182 32.7428 16.7195 33.1521C16.3219 33.5611 15.8397 33.9843 15.2586 34.4124C14.1226 35.2576 12.5955 36.1398 10.5039 36.8647C10.1811 34.9219 10.5734 33.3327 11.2465 32.1647C11.9248 30.9882 12.9346 30.2091 13.9478 29.7015C14.9915 29.1924 16.0603 28.9455 16.9642 28.8148C17.8681 28.6854 18.6084 28.6708 18.995 28.6702Z" fill="url(#paint8_linear_537_1032)"/>
<path fill-rule="evenodd" clip-rule="evenodd" d="M2.11193 18.5564C1.99636 18.9497 1.86779 19.7284 1.83361 20.695C1.82846 21.6648 1.94372 22.8268 2.396 23.9598C2.50702 24.2426 2.62712 24.5222 2.78081 24.7972C2.9357 25.0722 3.10934 25.3408 3.30356 25.5998C3.69291 26.118 4.15698 26.596 4.7475 27.0104C5.91584 27.8424 7.45235 28.3966 9.49831 28.5739C9.43539 27.6696 9.28836 26.8592 9.11502 26.1213C8.91717 25.3816 8.69965 24.7176 8.4059 24.1071C7.84896 22.8925 7.08207 21.9008 6.28583 21.1085C5.48354 20.3153 4.60138 19.7172 3.85294 19.3058C3.10027 18.8916 2.45438 18.6596 2.11193 18.5564Z" fill="url(#paint9_linear_537_1032)"/>
<path fill-rule="evenodd" clip-rule="evenodd" d="M19.0565 23.1963C18.9733 23.4072 18.8508 23.8186 18.5361 24.2957C18.2506 24.7815 17.7947 25.3424 17.1373 25.9115C16.9712 26.0534 16.7806 26.1943 16.5867 26.3359C16.394 26.4778 16.1831 26.6182 15.9529 26.7564C15.4934 27.0326 14.9479 27.2985 14.3429 27.5448C13.1204 28.0321 11.5261 28.4453 9.49831 28.5739C9.60722 27.6717 9.81866 26.8835 10.143 26.2155C10.4428 25.5448 10.8615 24.996 11.2953 24.5483C12.1947 23.6568 13.2478 23.1833 14.3002 22.9667C15.3473 22.748 16.3483 22.7664 17.1975 22.8587C18.0421 22.9504 18.7098 23.1077 19.0565 23.1963Z" fill="url(#paint10_linear_537_1032)"/>
<path fill-rule="evenodd" clip-rule="evenodd" d="M6.06532 10.6219C5.89106 10.9456 5.61274 11.6015 5.38131 12.4428C5.18013 13.2989 5.03402 14.3447 5.19587 15.4468C5.23338 15.7209 5.2836 15.9953 5.35741 16.2709C5.43668 16.5483 5.53378 16.8245 5.65147 17.0968C5.88985 17.6422 6.196 18.1674 6.62801 18.6641C7.48959 19.66 8.74687 20.4977 10.5178 21.1088C10.5944 20.6998 10.644 20.3065 10.67 19.9269C10.6969 19.5475 10.7272 19.1899 10.7211 18.839C10.7039 18.135 10.6591 17.4973 10.5269 16.8892C10.3956 16.2815 10.2401 15.7294 10.0172 15.2054C9.79481 14.6814 9.54493 14.2041 9.27054 13.7675C8.71874 12.8926 8.06227 12.1805 7.46872 11.6535C6.87819 11.1265 6.3509 10.7862 6.06532 10.6219Z" fill="url(#paint11_linear_537_1032)"/>
<path fill-rule="evenodd" clip-rule="evenodd" d="M20.2512 18.3194C20.1359 18.5018 19.9284 18.8521 19.5372 19.2248C19.1772 19.6121 18.6384 20.0268 17.9266 20.4007C17.7457 20.4933 17.5472 20.581 17.3388 20.6655C17.1358 20.752 16.9168 20.833 16.6811 20.9075C16.2131 21.0575 15.664 21.1761 15.0659 21.2629C13.8692 21.4326 12.3663 21.4504 10.5178 21.1088C10.6709 20.7198 10.837 20.3611 11.0146 20.0326C11.193 19.7043 11.4091 19.4145 11.6175 19.1486C12.0295 18.6147 12.5275 18.2171 13.0106 17.9098C13.4949 17.6024 14.0277 17.4103 14.5299 17.2848C15.0327 17.1592 15.5457 17.1181 16.0395 17.1296C17.0236 17.1511 17.9254 17.3789 18.6578 17.6321C19.3929 17.8877 19.9601 18.1678 20.2512 18.3194Z" fill="url(#paint12_linear_537_1032)"/>
<path fill-rule="evenodd" clip-rule="evenodd" d="M11.5854 3.95239C11.3724 4.20167 10.9988 4.71385 10.6325 5.40088C10.4537 5.74757 10.2921 6.14992 10.1524 6.58041C10.084 6.79671 10.0199 7.01937 9.97086 7.25231C9.92548 7.48798 9.89038 7.7303 9.8683 7.97776C9.76907 8.96035 9.92487 10.0497 10.4558 11.1022C10.987 12.1586 11.9288 13.1905 13.3515 14.1296C13.9545 12.7346 14.2476 11.5303 14.2742 10.4013C14.3275 9.29494 14.1109 8.26577 13.8053 7.38603C13.18 5.6069 12.0286 4.35172 11.5854 3.95239Z" fill="url(#paint13_linear_537_1032)"/>
<path fill-rule="evenodd" clip-rule="evenodd" d="M22.6347 13.6647C22.4931 13.8112 22.2248 14.0895 21.7916 14.3548C21.5792 14.4912 21.3408 14.6371 21.0522 14.7629C20.9094 14.827 20.753 14.8854 20.5902 14.9423C20.4314 15.0019 20.2611 15.0561 20.079 15.1039C19.3399 15.2869 18.4529 15.3922 17.3357 15.2772C16.2221 15.1607 14.9089 14.8508 13.3515 14.1296C14.2089 12.8705 15.2655 12.173 16.2581 11.8351C17.281 11.5147 18.2433 11.5414 19.1236 11.7649C20.8628 12.2021 22.1709 13.2808 22.6347 13.6647Z" fill="url(#paint14_linear_537_1032)"/>
<path fill-rule="evenodd" clip-rule="evenodd" d="M16.7335 0C16.5145 0.192102 16.1022 0.572973 15.6811 1.12205C15.2784 1.69019 14.8404 2.39869 14.6213 3.26451C14.5082 3.69378 14.4319 4.14364 14.431 4.62253C14.4335 5.10475 14.5 5.60453 14.6504 6.11428C14.9438 7.13075 15.6048 8.20469 16.7075 9.28349C16.8046 9.14191 16.8951 9.00095 16.9798 8.86058C17.0687 8.72384 17.1534 8.58982 17.2315 8.45489C17.3879 8.18595 17.5216 7.91882 17.6354 7.65381C17.874 7.13499 18.041 6.63098 18.1403 6.13182C18.2483 5.64173 18.3009 5.16828 18.3015 4.70542C18.3018 4.24195 18.2579 3.79755 18.1887 3.3843C17.907 1.7165 17.0681 0.425044 16.7335 0Z" fill="url(#paint15_linear_537_1032)"/>
<path fill-rule="evenodd" clip-rule="evenodd" d="M25.0843 10.3288C24.9367 10.4465 24.6381 10.6482 24.2055 10.8279C23.7901 11.0285 23.2132 11.178 22.5358 11.2487C22.194 11.2805 21.8089 11.2745 21.3962 11.2342C20.9872 11.1973 20.5392 11.1153 20.0524 10.9738C19.0741 10.6842 17.9615 10.188 16.7075 9.28349C16.8294 9.16278 16.9516 9.0488 17.0732 8.9417C17.199 8.83824 17.3267 8.74325 17.4526 8.6534C17.7049 8.47461 17.955 8.32123 18.2019 8.19175C18.7068 7.94368 19.2045 7.79879 19.6731 7.72467C20.1504 7.65963 20.6106 7.67777 21.0371 7.74554C21.4634 7.8127 21.8636 7.93794 22.2397 8.10463C23.7299 8.76353 24.7321 9.91825 25.0843 10.3288Z" fill="url(#paint16_linear_537_1032)"/>
<defs>
<linearGradient id="paint0_linear_537_1032" x1="23" y1="3" x2="29" y2="69" gradientUnits="userSpaceOnUse">
<stop stop-color="#AAAAAA"/>
<stop offset="1" stop-color="#AAAAAA" stop-opacity="0"/>
</linearGradient>
<linearGradient id="paint1_linear_537_1032" x1="23" y1="3" x2="29" y2="69" gradientUnits="userSpaceOnUse">
<stop stop-color="#AAAAAA"/>
<stop offset="1" stop-color="#AAAAAA" stop-opacity="0"/>
</linearGradient>
<linearGradient id="paint2_linear_537_1032" x1="23" y1="3" x2="29" y2="69" gradientUnits="userSpaceOnUse">
<stop stop-color="#AAAAAA"/>
<stop offset="1" stop-color="#AAAAAA" stop-opacity="0"/>
</linearGradient>
<linearGradient id="paint3_linear_537_1032" x1="23" y1="3" x2="29" y2="69" gradientUnits="userSpaceOnUse">
<stop stop-color="#AAAAAA"/>
<stop offset="1" stop-color="#AAAAAA" stop-opacity="0"/>
</linearGradient>
<linearGradient id="paint4_linear_537_1032" x1="23" y1="3" x2="29" y2="69" gradientUnits="userSpaceOnUse">
<stop stop-color="#AAAAAA"/>
<stop offset="1" stop-color="#AAAAAA" stop-opacity="0"/>
</linearGradient>
<linearGradient id="paint5_linear_537_1032" x1="23" y1="3" x2="29" y2="69" gradientUnits="userSpaceOnUse">
<stop stop-color="#AAAAAA"/>
<stop offset="1" stop-color="#AAAAAA" stop-opacity="0"/>
</linearGradient>
<linearGradient id="paint6_linear_537_1032" x1="23" y1="3" x2="29" y2="69" gradientUnits="userSpaceOnUse">
<stop stop-color="#AAAAAA"/>
<stop offset="1" stop-color="#AAAAAA" stop-opacity="0"/>
</linearGradient>
<linearGradient id="paint7_linear_537_1032" x1="23" y1="3" x2="29" y2="69" gradientUnits="userSpaceOnUse">
<stop stop-color="#AAAAAA"/>
<stop offset="1" stop-color="#AAAAAA" stop-opacity="0"/>
</linearGradient>
<linearGradient id="paint8_linear_537_1032" x1="23" y1="3" x2="29" y2="69" gradientUnits="userSpaceOnUse">
<stop stop-color="#AAAAAA"/>
<stop offset="1" stop-color="#AAAAAA" stop-opacity="0"/>
</linearGradient>
<linearGradient id="paint9_linear_537_1032" x1="23" y1="3" x2="29" y2="69" gradientUnits="userSpaceOnUse">
<stop stop-color="#AAAAAA"/>
<stop offset="1" stop-color="#AAAAAA" stop-opacity="0"/>
</linearGradient>
<linearGradient id="paint10_linear_537_1032" x1="23" y1="3" x2="29" y2="69" gradientUnits="userSpaceOnUse">
<stop stop-color="#AAAAAA"/>
<stop offset="1" stop-color="#AAAAAA" stop-opacity="0"/>
</linearGradient>
<linearGradient id="paint11_linear_537_1032" x1="23" y1="3" x2="29" y2="69" gradientUnits="userSpaceOnUse">
<stop stop-color="#AAAAAA"/>
<stop offset="1" stop-color="#AAAAAA" stop-opacity="0"/>
</linearGradient>
<linearGradient id="paint12_linear_537_1032" x1="23" y1="3" x2="29" y2="69" gradientUnits="userSpaceOnUse">
<stop stop-color="#AAAAAA"/>
<stop offset="1" stop-color="#AAAAAA" stop-opacity="0"/>
</linearGradient>
<linearGradient id="paint13_linear_537_1032" x1="23" y1="3" x2="29" y2="69" gradientUnits="userSpaceOnUse">
<stop stop-color="#AAAAAA"/>
<stop offset="1" stop-color="#AAAAAA" stop-opacity="0"/>
</linearGradient>
<linearGradient id="paint14_linear_537_1032" x1="23" y1="3" x2="29" y2="69" gradientUnits="userSpaceOnUse">
<stop stop-color="#AAAAAA"/>
<stop offset="1" stop-color="#AAAAAA" stop-opacity="0"/>
</linearGradient>
<linearGradient id="paint15_linear_537_1032" x1="23" y1="3" x2="29" y2="69" gradientUnits="userSpaceOnUse">
<stop stop-color="#AAAAAA"/>
<stop offset="1" stop-color="#AAAAAA" stop-opacity="0"/>
</linearGradient>
<linearGradient id="paint16_linear_537_1032" x1="23" y1="3" x2="29" y2="69" gradientUnits="userSpaceOnUse">
<stop stop-color="#AAAAAA"/>
<stop offset="1" stop-color="#AAAAAA" stop-opacity="0"/>
</linearGradient>
</defs>
</svg>
