<svg width="120" height="120" viewBox="0 0 120 120" fill="none" xmlns="http://www.w3.org/2000/svg">
<rect width="120" height="120" rx="60" fill="#2E2E2E"/>
<path d="M60.0067 26.6633C78.4167 26.6633 93.3434 41.59 93.3434 60.0033C93.3463 64.0882 92.5983 68.1389 91.1367 71.9533L87.8367 65.3533C88.5986 61.371 88.502 57.272 87.5534 53.33H76.3601C76.4712 54.4856 76.5534 55.6578 76.6067 56.8467C74.6318 57.2501 72.8758 58.3697 71.6767 59.99C71.6723 57.6856 71.5579 55.4667 71.3334 53.3333H48.6834C48.0983 58.8844 48.2496 64.4885 49.1334 70H66.5301L64.0301 75H50.2134C51.9467 81.4133 54.6967 86.0767 57.6867 87.7067L57.5734 87.9367C56.7067 89.67 56.5067 91.4967 56.8267 93.19C39.9034 91.59 26.6667 77.34 26.6667 60.0033C26.6667 41.59 41.5934 26.6633 60.0067 26.6633ZM45.0334 75.0033H35.9567C39.1761 80.1527 43.9596 84.136 49.6067 86.37C47.8634 83.6367 46.4267 80.2167 45.3734 76.32L45.0334 75.0033ZM43.6501 53.3333H32.4567L32.4434 53.39C31.9255 55.5563 31.6648 57.776 31.6667 60.0033C31.6667 63.5233 32.3101 66.8933 33.4834 70.0033H44.0601C43.26 64.4839 43.1223 58.8887 43.6501 53.3367M49.6101 33.6367L49.5334 33.6633C42.7106 36.3856 37.2062 41.6428 34.1734 48.3333H44.3334C45.3767 42.4933 47.2001 37.41 49.6101 33.6367ZM60.0067 31.6633L59.6201 31.68C55.4001 32.0667 51.3267 38.74 49.4334 48.3333H70.5767C68.6901 38.7667 64.6334 32.1033 60.4267 31.6833L60.0067 31.6633ZM70.4067 33.63L70.7601 34.2133C72.9934 37.92 74.6867 42.7867 75.6767 48.3367H85.8367C82.9445 41.9503 77.7949 36.8576 71.3767 34.0367L70.4067 33.63ZM73.8701 62.7667L60.5467 89.4267C60.1645 90.1895 59.9838 91.0374 60.0219 91.8897C60.06 92.7421 60.3155 93.5705 60.7642 94.2962C61.2129 95.0219 61.8399 95.6207 62.5854 96.0356C63.3309 96.4505 64.1702 96.6678 65.0234 96.6667H91.6701C92.5233 96.6678 93.3626 96.4505 94.1081 96.0356C94.8536 95.6207 95.4806 95.0219 95.9293 94.2962C96.378 93.5705 96.6335 92.7421 96.6716 91.8897C96.7097 91.0374 96.529 90.1895 96.1467 89.4267L82.8234 62.7667C80.9801 59.0767 75.7134 59.0767 73.8701 62.7667ZM80.0134 71.6533V81.6567C80.0134 82.0987 79.8378 82.5226 79.5253 82.8352C79.2127 83.1477 78.7888 83.3233 78.3467 83.3233C77.9047 83.3233 77.4808 83.1477 77.1682 82.8352C76.8557 82.5226 76.6801 82.0987 76.6801 81.6567V71.6533C76.6801 71.2113 76.8557 70.7874 77.1682 70.4748C77.4808 70.1623 77.9047 69.9867 78.3467 69.9867C78.7888 69.9867 79.2127 70.1623 79.5253 70.4748C79.8378 70.7874 80.0134 71.2113 80.0134 71.6533ZM78.3467 89.9967C77.9043 89.9967 77.4799 89.8209 77.1671 89.508C76.8542 89.1951 76.6784 88.7708 76.6784 88.3283C76.6784 87.8859 76.8542 87.4615 77.1671 87.1486C77.4799 86.8358 77.9043 86.66 78.3467 86.66C78.7888 86.66 79.2127 86.8356 79.5253 87.1482C79.8378 87.4607 80.0134 87.8846 80.0134 88.3267C80.0134 88.7687 79.8378 89.1926 79.5253 89.5052C79.2127 89.8177 78.7888 89.9933 78.3467 89.9933" fill="#E72D38"/>
</svg>
