<svg width="80" height="24" viewBox="0 0 80 24" fill="none" xmlns="http://www.w3.org/2000/svg">
<path d="M21.3229 20.9071V4H28.6824C30.0911 4 31.2934 4.2284 32.2892 4.6852C33.2911 5.1365 34.0532 5.77767 34.5754 6.60872C35.1037 7.43426 35.3678 8.40565 35.3678 9.52288C35.3678 10.6456 35.1006 11.6115 34.5663 12.4205C34.0319 13.2241 33.2577 13.8405 32.2437 14.2698C31.2357 14.699 30.0152 14.9137 28.5822 14.9137H23.6546V12.0408H27.9446C28.6975 12.0408 29.323 11.9472 29.8209 11.7601C30.3188 11.573 30.6892 11.2923 30.9321 10.9181C31.181 10.5438 31.3055 10.0788 31.3055 9.52288C31.3055 8.96152 31.181 8.4882 30.9321 8.10295C30.6892 7.7177 30.3158 7.426 29.8118 7.22787C29.3139 7.02424 28.6854 6.92242 27.9264 6.92242H25.2668V20.9071H21.3229ZM31.3966 13.2131L36.0327 20.9071H31.679L27.1431 13.2131H31.3966Z" fill="#FF2130"/>
<path d="M40.5595 20.9071V4H53.1288V6.94719H44.5033V10.9758H52.4821V13.923H44.5033V17.9599H53.1653V20.9071H40.5595Z" fill="#FF2130"/>
<path d="M65.2815 20.9071H58.6689V4H65.3361C67.2124 4 68.8276 4.33847 70.1817 5.01542C71.5358 5.68686 72.5772 6.65275 73.3058 7.91308C74.0406 9.17341 74.4079 10.6814 74.4079 12.4371C74.4079 14.1982 74.0406 15.7117 73.3058 16.9775C72.5772 18.2434 71.5297 19.2148 70.1635 19.8917C68.8033 20.5687 67.176 20.9071 65.2815 20.9071ZM62.6128 17.8444H65.1175C66.2834 17.8444 67.264 17.6572 68.0595 17.283C68.861 16.9032 69.4622 16.3171 69.8629 15.5246C70.2698 14.7266 70.4732 13.6974 70.4732 12.4371C70.4732 11.1877 70.2698 10.1668 69.8629 9.37429C69.4622 8.58177 68.8641 7.99838 68.0686 7.62413C67.2732 7.24989 66.2925 7.06277 65.1266 7.06277H62.6128V17.8444Z" fill="#FF2130"/>
<path d="M9.48776 21C8.96176 21 8.52684 20.9009 8.183 20.7028C7.83917 20.5026 7.5978 20.2199 7.4589 19.8546C7.32228 19.4872 7.2995 19.0548 7.39059 18.5574C7.47939 18.0683 7.66042 17.639 7.93366 17.2696C8.20691 16.8981 8.54847 16.6091 8.95834 16.4028C9.37049 16.1943 9.8259 16.0901 10.3246 16.0901C10.6479 16.0901 10.9451 16.1376 11.216 16.2325C11.487 16.3254 11.7159 16.4698 11.9026 16.6659C12.0893 16.862 12.2179 17.1117 12.2885 17.4151C12.3591 17.7164 12.3557 18.0755 12.2783 18.4924L12.2202 18.836H7.91659L8.04979 18.0807H11.1648C11.2058 17.866 11.1921 17.6751 11.1238 17.508C11.0555 17.3387 10.9417 17.2056 10.7823 17.1086C10.6229 17.0116 10.4236 16.9631 10.1845 16.9631C9.94089 16.9631 9.71319 17.0199 9.50142 17.1334C9.29193 17.2448 9.11546 17.3893 8.972 17.5668C8.82855 17.7443 8.73747 17.931 8.69876 18.1271L8.55872 18.8515C8.50862 19.1487 8.52001 19.3912 8.59287 19.579C8.66574 19.7668 8.79325 19.9051 8.97542 19.9939C9.15758 20.0826 9.38757 20.127 9.66537 20.127C9.84753 20.127 10.016 20.1043 10.1709 20.0589C10.3257 20.0135 10.4635 19.9454 10.5842 19.8546C10.7071 19.7617 10.8096 19.6482 10.8916 19.514L12.0221 19.6317C11.8969 19.9082 11.7136 20.1497 11.4722 20.3561C11.2308 20.5604 10.9417 20.7193 10.6047 20.8328C10.2699 20.9443 9.89763 21 9.48776 21Z" fill="#FF2130"/>
<path d="M16.2352 14.567L15.0739 20.9071H13.8374L14.9987 14.567H16.2352Z" fill="#FF2130"/>
</svg>
