<svg width="40" height="40" viewBox="0 0 40 40" fill="none" xmlns="http://www.w3.org/2000/svg">
<g clip-path="url(#clip0_754_16746)">
<path d="M40 20C40 23.7797 38.9513 27.3142 37.128 30.3294C35.5751 32.9033 33.4564 35.0962 30.9453 36.7421C30.7931 36.8414 30.6385 36.9395 30.4838 37.0351C30.1544 37.2388 29.8174 37.4324 29.4741 37.6173C29.4238 37.6449 29.3735 37.6713 29.3232 37.6977C28.5637 38.1001 27.7753 38.4534 26.9605 38.7552H26.9592C25.1586 39.4241 23.2347 39.8416 21.2304 39.9623C20.8909 39.9837 20.5476 39.995 20.2018 39.9987C20.1779 39.9987 20.1528 39.9987 20.1289 39.9987C20.0861 39.9987 20.0434 39.9987 20.0006 39.9987H19.9818C19.9076 39.9987 19.8347 39.9987 19.7617 39.9987C19.4285 39.995 19.0991 39.9824 18.7709 39.9623C16.759 39.8403 14.8276 39.4216 13.0194 38.7477C12.3178 38.4861 11.635 38.1869 10.9748 37.8511C10.8227 37.7757 10.673 37.6977 10.5247 37.6173C10.1839 37.4337 9.84817 37.24 9.51998 37.0376C9.35526 36.9358 9.19305 36.8326 9.03084 36.727C6.53107 35.0836 4.41986 32.8945 2.87071 30.3294C1.04869 27.3142 0 23.7797 0 20C0 8.95511 8.95414 0 20.0006 0C31.0471 0 40 8.95511 40 20Z" fill="#91C6EE"/>
<path d="M23.0724 33.2336V28.9082H16.8946V33.2336C16.8946 33.2336 11.5342 33.934 9.0332 36.7266C9.19541 36.8323 9.35762 36.9354 9.52234 37.0372C9.85053 37.2397 10.1863 37.4333 10.527 37.6169C11.3267 38.0482 12.1604 38.4266 13.0218 38.7473C14.8299 39.4212 16.7613 39.8399 18.7732 39.9619C19.1014 39.982 19.4309 39.9946 19.7641 39.9984C19.837 39.9984 19.9099 39.9984 19.9841 39.9984H20.003C20.0696 39.9984 20.1375 39.9984 20.2042 39.9984C20.55 39.9946 20.8933 39.9833 21.2328 39.9619C23.2371 39.8412 25.161 39.4237 26.9616 38.7548H26.9629C27.8317 38.4329 28.6704 38.0519 29.4764 37.6169C29.8197 37.432 30.1567 37.2384 30.4862 37.0347C30.6408 36.9391 30.7955 36.8411 30.9476 36.7417C28.4529 33.9365 23.0724 33.2336 23.0724 33.2336Z" fill="#FDDCAB"/>
<path d="M8.67715 19.4675C8.89972 22.0187 10.513 22.1721 10.513 22.1721L10.5369 17.0646C10.5369 17.0646 8.45207 16.915 8.67715 19.4675Z" fill="#FDDCAB"/>
<path d="M20.0051 6.8584C14.7377 6.8584 10.4688 11.1285 10.4688 16.3944V21.9483C10.4688 27.2155 14.739 31.4843 20.0051 31.4843L20.0051 6.8584Z" fill="#FDDCAB"/>
<path d="M31.2787 19.3894C31.0561 21.9406 29.4428 22.094 29.4428 22.094L29.4189 16.9865C29.4189 16.9865 31.5038 16.8369 31.2787 19.3894Z" fill="#FFEAD5"/>
<path d="M20 6.8584L20 31.4856C25.2674 31.4856 29.5363 27.2155 29.5363 21.9496V16.3957C29.5363 11.1285 25.2661 6.85966 20 6.85966V6.8584Z" fill="#FFEAD5"/>
<path d="M30.9433 36.7429L29.3213 37.6985C28.5618 38.1009 27.7734 38.4542 26.9586 38.756H26.9573C25.1567 39.4249 23.2328 39.8424 21.2285 39.9631C20.889 39.9845 20.5457 39.9958 20.1999 39.9995C20.176 39.9995 20.1508 39.9995 20.127 39.9995V37.1377H20.1307C20.1735 37.1377 20.2125 37.134 20.2565 37.134C23.8929 37.0585 24.5531 33.4209 24.5531 33.4209C24.6499 33.4272 24.7442 33.436 24.8373 33.4498C28.524 34.0182 30.9433 36.7429 30.9433 36.7429Z" fill="#FEC84B"/>
<path d="M20.1313 37.1377V39.9995C20.0885 39.9995 20.0457 39.9995 20.003 39.9995H19.9841C19.9099 39.9995 19.837 39.9995 19.7641 39.9995C19.4309 39.9958 19.1014 39.9832 18.7732 39.9631C16.7613 39.8411 14.8299 39.4224 13.0218 38.7484C12.3201 38.4869 11.6373 38.1877 10.9772 37.8519L9.0332 36.7278C9.0332 36.7278 11.3796 33.9855 15.4222 33.4498C15.5165 33.4372 15.6083 33.4272 15.7064 33.4209C15.7064 33.4209 16.3665 37.0585 20.0017 37.134C20.0457 37.134 20.086 37.1377 20.1287 37.1377H20.1313Z" fill="#FDB022"/>
<path d="M17.6576 18.0527H14.5606C13.5571 18.0527 12.7461 18.8034 12.7461 19.7301C12.7461 20.6568 13.5584 21.4074 14.5606 21.4074H17.6576C18.6598 21.4074 19.4721 20.6555 19.4721 19.7301C19.4721 18.8047 18.6598 18.0527 17.6576 18.0527Z" fill="white"/>
<path d="M17.5957 20.0561H19.9986V19.4048H17.6385L17.5957 20.0561Z" fill="white"/>
<path d="M22.5957 21.4089H25.6928C26.6962 21.4089 27.5072 20.6582 27.5072 19.7316C27.5072 18.8049 26.6949 18.0542 25.6928 18.0542H22.5957C21.5935 18.0542 20.7812 18.8061 20.7812 19.7316C20.7812 20.657 21.5935 21.4089 22.5957 21.4089Z" fill="white"/>
<path d="M22.4017 19.4048H20V20.0561H22.3589L22.4017 19.4048Z" fill="white"/>
<path d="M27.372 4.42688C27.4914 3.86105 27.4185 2.67156 19.9268 3.12548V9.43002C19.9268 9.43002 28.0774 12.2202 30.1333 11.0118C30.1333 11.0118 29.5285 8.67684 28.51 7.23211C27.4914 5.78737 27.2538 4.99396 27.372 4.42813V4.42688Z" fill="#026E78"/>
<path d="M12.4859 4.42764C12.6054 4.99472 12.3665 5.78688 11.3479 7.23162C10.3282 8.67635 9.72461 11.0113 9.72461 11.0113C11.7805 12.2197 19.9299 9.42953 19.9299 9.42953V3.12499C12.4394 2.67233 12.3652 3.86182 12.4847 4.42638L12.4859 4.42764Z" fill="#026E78"/>
<path d="M8.66988 12.6225C8.93897 13.2311 8.68371 13.8812 8.31151 14.3917C7.93806 14.9047 8.51396 15.805 8.51396 15.805L8.42091 16.0275C8.15811 16.5343 8.67114 16.88 8.67114 16.88C8.67114 16.88 10.5522 15.8616 12.7603 15.2693C14.9696 14.6784 20.0131 14.2244 20.0131 14.2244V9.43128C15.636 9.39607 11.9681 10.881 10.2894 10.8974C8.61204 10.9137 8.40205 12.0114 8.67114 12.6225H8.66988Z" fill="#015364"/>
<path d="M31.7566 14.3917C31.3831 13.8799 31.1278 13.2311 31.3969 12.6225C31.666 12.0114 31.4573 10.915 29.7786 10.8974C28.1 10.881 24.3478 9.39607 19.9707 9.43128V14.2244C19.9707 14.2244 25.0985 14.6784 27.3078 15.2693C29.5158 15.8616 31.3969 16.88 31.3969 16.88C31.3969 16.88 31.91 16.5343 31.6472 16.0275L31.5541 15.805C31.5541 15.805 32.1288 14.9047 31.7578 14.3917H31.7566Z" fill="#015364"/>
<path d="M32.9075 18.8879C31.718 18.9721 31.308 17.4168 31.308 17.4168C32.2813 14.0746 21.3291 13.7251 20.0516 13.6949V13.6924C20.0516 13.6924 20.0289 13.6924 19.9899 13.6924C19.951 13.6924 19.9283 13.6924 19.9283 13.6924V13.6949C18.6508 13.7238 7.6986 14.0734 8.67184 17.4168C8.67184 17.4168 8.26192 18.9734 7.0724 18.8879C5.88287 18.8037 11.1477 20.4043 11.1905 17.4168C11.1905 17.4168 11.911 19.0489 13.5243 19.3934C13.5243 19.3934 13.4513 17.9122 14.8257 17.1062C14.8257 17.1062 16.3258 18.7609 15.6895 19.8649C15.6895 19.8649 19.4694 19.7542 19.9912 17.4671C20.5118 19.7542 24.2928 19.8649 24.2928 19.8649C23.6566 18.7609 25.1567 17.1062 25.1567 17.1062C26.5298 17.9122 26.4581 19.3934 26.4581 19.3934C28.0714 19.0489 28.7919 17.4168 28.7919 17.4168C28.8347 20.4056 34.0983 18.8049 32.9087 18.8879H32.9075Z" fill="#1F1F24"/>
<path d="M20.001 0.833008C30.587 0.833195 39.167 9.41539 39.167 20C39.167 23.397 38.2831 26.5851 36.7334 29.3506L36.415 29.8984L36.4141 29.8994C35.5665 31.3045 34.5426 32.5918 33.373 33.7305L32.8633 34.209V34.21C32.1015 34.9 31.2844 35.5293 30.4199 36.0898L30.0469 36.3252L30.0459 36.3262C29.8888 36.4233 29.7295 36.5185 29.5684 36.6113L29.0791 36.8838H29.0781C28.3159 37.2952 27.5233 37.6554 26.7031 37.9609L26.6689 37.9736C25.1596 38.5344 23.5598 38.9114 21.8965 39.0742L21.1807 39.1309H21.1787C20.7902 39.1549 20.3976 39.167 20.001 39.167H19.9814C19.7864 39.167 19.5924 39.1632 19.3994 39.1572L18.8232 39.1309H18.8213C17.1338 39.0286 15.5064 38.708 13.9658 38.1973L13.3105 37.9668C12.6916 37.7364 12.0875 37.4743 11.501 37.1836L10.9199 36.8838L10.4336 36.6123L9.95703 36.3281L9.58301 36.0918C8.84088 35.6104 8.13384 35.079 7.4668 34.502L7.13672 34.21C5.92672 33.1139 4.85652 31.8644 3.95801 30.4932L3.58398 29.8984L3.26562 29.3506C1.7169 26.585 0.833008 23.3969 0.833008 20C0.833008 9.41534 9.41473 0.833008 20.001 0.833008Z" stroke="#C4C4C4" stroke-width="1.66667"/>
</g>
<defs>
<clipPath id="clip0_754_16746">
<rect width="40" height="40" fill="white"/>
</clipPath>
</defs>
</svg>
