<svg width="28" height="28" viewBox="0 0 28 28" fill="none" xmlns="http://www.w3.org/2000/svg">
<g clip-path="url(#clip0_663_2763)">
<circle cx="14" cy="14" r="14" fill="#363638"/>
<path d="M12.8 10.4C12.8 11.0365 12.5471 11.647 12.0971 12.0971C11.647 12.5471 11.0365 12.8 10.4 12.8C9.76348 12.8 9.15303 12.5471 8.70294 12.0971C8.25286 11.647 8 11.0365 8 10.4C8 9.76348 8.25286 9.15303 8.70294 8.70294C9.15303 8.25286 9.76348 8 10.4 8C11.0365 8 11.647 8.25286 12.0971 8.70294C12.5471 9.15303 12.8 9.76348 12.8 10.4ZM12.8 17.6C12.8 18.2365 12.5471 18.847 12.0971 19.2971C11.647 19.7471 11.0365 20 10.4 20C9.76348 20 9.15303 19.7471 8.70294 19.2971C8.25286 18.847 8 18.2365 8 17.6C8 16.9635 8.25286 16.353 8.70294 15.9029C9.15303 15.4529 9.76348 15.2 10.4 15.2C11.0365 15.2 11.647 15.4529 12.0971 15.9029C12.5471 16.353 12.8 16.9635 12.8 17.6ZM20 10.4C20 11.0365 19.7471 11.647 19.2971 12.0971C18.847 12.5471 18.2365 12.8 17.6 12.8C16.9635 12.8 16.353 12.5471 15.9029 12.0971C15.4529 11.647 15.2 11.0365 15.2 10.4C15.2 9.76348 15.4529 9.15303 15.9029 8.70294C16.353 8.25286 16.9635 8 17.6 8C18.2365 8 18.847 8.25286 19.2971 8.70294C19.7471 9.15303 20 9.76348 20 10.4ZM17.6 20C18.2365 20 18.847 19.7471 19.2971 19.2971C19.7471 18.847 20 18.2365 20 17.6C20 16.9635 19.7471 16.353 19.2971 15.9029C18.847 15.4529 18.2365 15.2 17.6 15.2C16.9635 15.2 16.353 15.4529 15.9029 15.9029C15.4529 16.353 15.2 16.9635 15.2 17.6C15.2 18.2365 15.4529 18.847 15.9029 19.2971C16.353 19.7471 16.9635 20 17.6 20Z" fill="#FF2130"/>
</g>
<defs>
<clipPath id="clip0_663_2763">
<rect width="28" height="28" fill="white"/>
</clipPath>
</defs>
</svg>
