<svg width="89" height="80" viewBox="0 0 89 80" fill="none" xmlns="http://www.w3.org/2000/svg">
<circle cx="39.2925" cy="39.2925" r="39.2925" fill="#3F3F3F"/>
<mask id="mask0_702_4547" style="mask-type:alpha" maskUnits="userSpaceOnUse" x="0" y="0" width="79" height="79">
<circle cx="39.2925" cy="39.2925" r="39.2925" fill="#E0E9F9"/>
</mask>
<g mask="url(#mask0_702_4547)">
<rect x="2.62109" y="6.54834" width="74.0008" height="57.629" rx="9.57849" fill="#4FB4F3"/>
<rect x="2.62109" y="22.2656" width="74.0008" height="5.56643" fill="#2589D4"/>
<rect x="11.1328" y="34.7075" width="20.956" height="5.89387" rx="2.94694" fill="#2589D4"/>
<circle cx="62.213" cy="55.6642" r="22.2657" fill="#3C3C3C"/>
</g>
<circle cx="62.2136" cy="55.6643" r="19.6462" fill="#F4BD22"/>
<g filter="url(#filter0_d_702_4547)">
<path d="M61.627 42.5664V56.5119C61.627 56.9477 61.9803 57.3011 62.4162 57.3011H76.2273" stroke="white" stroke-width="3.27437" stroke-linecap="round"/>
</g>
<g clip-path="url(#clip0_702_4547)">
<rect x="2.62109" y="6.54883" width="74.0008" height="57.629" rx="9.57849" fill="#4FB4F3"/>
<rect x="2.62109" y="22.2661" width="74.0008" height="5.56643" fill="#2589D4"/>
<rect x="11.1328" y="34.708" width="20.956" height="5.89387" rx="2.94694" fill="#2589D4"/>
</g>
<line x1="78.5032" y1="70.4607" x2="86.3165" y2="76.3579" stroke="#F4BD22" stroke-opacity="0.6" stroke-width="1.30975" stroke-linecap="round"/>
<line x1="80.6769" y1="66.9549" x2="87.3835" y2="68.4453" stroke="#F4BD22" stroke-opacity="0.6" stroke-width="1.30975" stroke-linecap="round"/>
<line x1="75.5567" y1="73.5703" x2="78.8755" y2="79.1016" stroke="#F4BD22" stroke-opacity="0.6" stroke-width="1.30975" stroke-linecap="round"/>
<defs>
<filter id="filter0_d_702_4547" x="59.0037" y="39.9427" width="23.7931" height="23.9283" filterUnits="userSpaceOnUse" color-interpolation-filters="sRGB">
<feFlood flood-opacity="0" result="BackgroundImageFix"/>
<feColorMatrix in="SourceAlpha" type="matrix" values="0 0 0 0 0 0 0 0 0 0 0 0 0 0 0 0 0 0 127 0" result="hardAlpha"/>
<feOffset dx="1.97302" dy="1.97302"/>
<feGaussianBlur stdDeviation="1.47977"/>
<feComposite in2="hardAlpha" operator="out"/>
<feColorMatrix type="matrix" values="0 0 0 0 0 0 0 0 0 0 0 0 0 0 0 0 0 0 0.45 0"/>
<feBlend mode="normal" in2="BackgroundImageFix" result="effect1_dropShadow_702_4547"/>
<feBlend mode="normal" in="SourceGraphic" in2="effect1_dropShadow_702_4547" result="shape"/>
</filter>
<clipPath id="clip0_702_4547">
<rect width="35.3632" height="34.0535" fill="white" transform="translate(2.62109 6.54834)"/>
</clipPath>
</defs>
</svg>
