<svg width="31" height="34" viewBox="0 0 31 34" fill="none" xmlns="http://www.w3.org/2000/svg">
<path d="M0.618332 0.516164C0.226665 0.915914 0 1.53829 0 2.34429V31.0938C0 31.8998 0.226665 32.5222 0.618332 32.9219L0.714999 33.0097L17.2383 16.9059V16.5257L0.714999 0.421916L0.618332 0.516164Z" fill="url(#paint0_linear_9755_1339)"/>
<path d="M22.7399 22.2765L17.2383 16.9059V16.5256L22.7466 11.155L22.8699 11.2249L29.3933 14.8438C31.2549 15.8708 31.2549 17.5608 29.3933 18.5943L22.8699 22.2066L22.7399 22.2765V22.2765Z" fill="url(#paint1_linear_9755_1339)"/>
<path d="M22.8699 22.2067L17.2383 16.7158L0.618286 32.9219C1.23662 33.5557 2.24495 33.6321 3.39162 32.9983L22.8699 22.2067" fill="url(#paint2_linear_9755_1339)"/>
<path d="M22.8699 11.225L3.39162 0.433348C2.24495 -0.193902 1.23662 -0.117529 0.618286 0.51622L17.2383 16.7158L22.8699 11.225Z" fill="url(#paint3_linear_9755_1339)"/>
<defs>
<linearGradient id="paint0_linear_9755_1339" x1="15.7713" y1="31.3932" x2="-6.03887" y2="9.02383" gradientUnits="userSpaceOnUse">
<stop stop-color="#00A0FF"/>
<stop offset="0.0066" stop-color="#00A1FF"/>
<stop offset="0.2601" stop-color="#00BEFF"/>
<stop offset="0.5122" stop-color="#00D2FF"/>
<stop offset="0.7604" stop-color="#00DFFF"/>
<stop offset="1" stop-color="#00E3FF"/>
</linearGradient>
<linearGradient id="paint1_linear_9755_1339" x1="31.8175" y1="16.7139" x2="-0.445048" y2="16.7139" gradientUnits="userSpaceOnUse">
<stop stop-color="#FFE000"/>
<stop offset="0.4087" stop-color="#FFBD00"/>
<stop offset="0.7754" stop-color="#FFA500"/>
<stop offset="1" stop-color="#FF9C00"/>
</linearGradient>
<linearGradient id="paint2_linear_9755_1339" x1="19.8076" y1="13.7309" x2="-9.76869" y2="-16.6038" gradientUnits="userSpaceOnUse">
<stop stop-color="#FF3A44"/>
<stop offset="1" stop-color="#C31162"/>
</linearGradient>
<linearGradient id="paint3_linear_9755_1339" x1="-3.56531" y1="42.4868" x2="9.64183" y2="28.9411" gradientUnits="userSpaceOnUse">
<stop stop-color="#32A071"/>
<stop offset="0.0685" stop-color="#2DA771"/>
<stop offset="0.4762" stop-color="#15CF74"/>
<stop offset="0.8009" stop-color="#06E775"/>
<stop offset="1" stop-color="#00F076"/>
</linearGradient>
</defs>
</svg>
