<svg width="29" height="63" viewBox="0 0 29 63" fill="none" xmlns="http://www.w3.org/2000/svg">
<path fill-rule="evenodd" clip-rule="evenodd" d="M1.56692 1.26135C1.73421 1.80226 2.25484 3.21868 3.29613 4.34285C3.55448 4.63358 3.85277 4.90221 4.20369 5.13153C4.54494 5.37627 4.9358 5.58651 5.39655 5.74322C5.84246 5.9214 6.36401 6.03909 6.96058 6.11502C7.25554 6.15737 7.57259 6.18491 7.91474 6.19732C8.08567 6.20337 8.26324 6.20579 8.44718 6.20428C8.62808 6.20609 8.81384 6.20639 9.00745 6.20125C8.99293 6.00673 8.97326 5.81582 8.94664 5.63219C8.91699 5.45189 8.8816 5.27673 8.84167 5.10671C8.7618 4.76637 8.66228 4.44601 8.54701 4.14591C8.30984 3.55387 7.99612 3.05925 7.65487 2.63149C7.2982 2.22429 6.90855 1.8903 6.50589 1.6268C6.09295 1.37812 5.67002 1.1951 5.25738 1.06592C3.57203 0.574927 2.06003 1.06955 1.56692 1.26135Z" fill="url(#paint0_linear_537_1033)"/>
<path fill-rule="evenodd" clip-rule="evenodd" d="M1.857 42.5806C1.68335 42.7812 1.353 43.1572 1.04473 43.7574C0.878944 44.0439 0.738573 44.4163 0.58701 44.8123C0.514707 45.0153 0.44785 45.2359 0.388858 45.4761C0.327748 45.7132 0.265126 45.9565 0.216723 46.2275C0.0228057 47.3115 -0.0779382 48.6562 0.0727179 50.392C0.154399 51.2703 0.281465 52.2078 0.51834 53.276C0.753097 54.3382 1.08527 55.5062 1.56688 56.7741C3.64158 55.5343 4.79963 53.9019 5.29909 52.3403C5.791 50.7514 5.65668 49.2316 5.23163 47.8947C4.80387 46.5533 4.12016 45.4168 3.45794 44.501C2.79905 43.5923 2.18342 42.9246 1.857 42.5806Z" fill="url(#paint1_linear_537_1033)"/>
<path fill-rule="evenodd" clip-rule="evenodd" d="M18.1494 59.2141C17.737 59.6171 16.8821 60.334 15.7007 61.0193C15.099 61.3484 14.4401 61.696 13.689 61.9492C13.3172 62.0802 12.9324 62.1991 12.5373 62.3004C12.1401 62.3988 11.7232 62.4671 11.3051 62.5195C9.63245 62.7306 7.81126 62.4965 6.12561 61.5992C5.28762 61.1624 4.46204 60.5252 3.70271 59.7314C2.93944 58.9322 2.22971 57.9515 1.56688 56.7741C3.82189 55.9536 5.75622 55.5563 7.56289 55.4846C9.34898 55.3957 11.0007 55.6459 12.4541 56.0636C13.9041 56.4787 15.1771 57.0986 16.1448 57.6924C17.1196 58.2896 17.8087 58.8844 18.1494 59.2141Z" fill="url(#paint2_linear_537_1033)"/>
<path fill-rule="evenodd" clip-rule="evenodd" d="M5.73224 38.7235C5.67234 38.8351 5.59974 39.0057 5.52108 39.2245C5.43396 39.439 5.34925 39.7061 5.28754 40.0274C5.21432 40.3417 5.15231 40.7029 5.13567 41.1252C5.09544 41.5312 5.10875 42.0059 5.15141 42.5247C5.23914 43.562 5.50596 44.829 6.09921 46.3522C6.39447 47.1109 6.78079 47.941 7.2857 48.8353C7.78274 49.7202 8.40049 50.6719 9.18281 51.6727C10.7066 49.9952 11.3108 48.2151 11.3462 46.6683C11.3528 46.2778 11.3347 45.9066 11.279 45.5436C11.2191 45.1775 11.1335 44.8275 11.0264 44.4938C10.8186 43.8304 10.4997 43.2153 10.1373 42.6648C9.77455 42.1139 9.36886 41.6268 8.94503 41.1921C8.51696 40.7552 8.08012 40.3753 7.66717 40.0482C6.84159 39.3954 6.11493 38.9501 5.73224 38.7235Z" fill="url(#paint3_linear_537_1033)"/>
<path fill-rule="evenodd" clip-rule="evenodd" d="M24.7138 49.555C24.5746 49.7843 24.3695 50.118 24.0846 50.5058C23.7917 50.8885 23.426 51.3302 22.9918 51.7885C22.5468 52.2386 22.022 52.697 21.4411 53.1293C20.8379 53.544 20.1872 53.9406 19.4641 54.2425C18.0193 54.8491 16.3506 55.122 14.5972 54.7614C13.7177 54.5799 12.825 54.2501 11.9262 53.7452C11.018 53.2318 10.1061 52.546 9.18281 51.6727C10.9858 50.3201 12.6171 49.4421 14.2163 48.9015C14.6123 48.7645 15.014 48.6559 15.404 48.5606C15.7897 48.4622 16.1748 48.3851 16.5566 48.327C17.3268 48.2151 18.0604 48.16 18.7692 48.1637C19.4777 48.167 20.1614 48.229 20.791 48.3237C21.4169 48.4157 21.9971 48.5457 22.5133 48.6922C23.5467 48.9835 24.3217 49.3444 24.7138 49.555Z" fill="url(#paint4_linear_537_1033)"/>
<path fill-rule="evenodd" clip-rule="evenodd" d="M8.42661 33.826C8.40241 33.9467 8.37609 34.1243 8.36671 34.3503C8.34251 34.5718 8.33313 34.8404 8.35854 35.1517C8.39636 35.771 8.53582 36.5436 8.89492 37.4575C9.25371 38.3717 9.82699 39.439 10.7696 40.6458C11.2522 41.2536 11.8073 41.8843 12.498 42.5444C13.1874 43.2033 14.0027 43.887 14.9771 44.568C15.4252 43.6114 15.6669 42.6896 15.7492 41.8383C15.784 41.4094 15.7888 41.0022 15.7607 40.6143C15.7192 40.2211 15.6502 39.8496 15.5574 39.4995C15.1717 38.0928 14.3524 37.0225 13.4101 36.222C12.4816 35.4252 11.4204 34.8858 10.5092 34.5119C9.59768 34.1398 8.82957 33.9292 8.42661 33.826Z" fill="url(#paint5_linear_537_1033)"/>
<path fill-rule="evenodd" clip-rule="evenodd" d="M28.2939 38.5713C28.2316 38.8094 28.1323 39.1545 27.9865 39.5714C27.8256 39.9849 27.615 40.4699 27.3476 40.9872C26.8019 42.0179 25.9829 43.1708 24.8582 44.0965C23.7355 45.0222 22.3164 45.7078 20.654 45.8569C19.833 45.9386 18.9314 45.8766 17.9861 45.6669C17.0392 45.4573 16.0399 45.095 14.9771 44.568C15.5967 43.714 16.2099 42.9835 16.834 42.3519C17.1393 42.033 17.4569 41.7432 17.7779 41.4761C18.0856 41.2032 18.4023 40.9551 18.7257 40.7288C20.0036 39.8198 21.3344 39.2311 22.6025 38.8662C23.8849 38.505 25.0929 38.3725 26.0949 38.3683C27.0974 38.3628 27.8867 38.485 28.2939 38.5713Z" fill="url(#paint6_linear_537_1033)"/>
<path fill-rule="evenodd" clip-rule="evenodd" d="M9.7086 28.67C9.71193 28.7892 9.72493 28.9625 9.76336 29.1773C9.78272 29.2847 9.80812 29.4021 9.84231 29.5289C9.87317 29.6553 9.90312 29.7905 9.94789 29.9336C10.1333 30.5075 10.4334 31.2 10.978 31.9618C11.2381 32.3408 11.5854 32.7426 11.9842 33.1519C12.3817 33.5609 12.8639 33.9841 13.445 34.4122C14.581 35.2574 16.1085 36.1399 18.2001 36.8647C18.5229 34.9219 18.1302 33.3325 17.4571 32.1644C16.7788 30.9879 15.769 30.2089 14.7559 29.7013C13.7122 29.1921 12.6434 28.9453 11.7394 28.8146C10.8352 28.6851 10.0952 28.6706 9.7086 28.67Z" fill="url(#paint7_linear_537_1033)"/>
<path fill-rule="evenodd" clip-rule="evenodd" d="M28.7035 28.3743C28.6993 28.5985 28.6851 28.9252 28.6451 29.3258C28.6252 29.526 28.5985 29.7447 28.5634 29.9777C28.5253 30.2109 28.4691 30.4581 28.407 30.7162C28.1659 31.7475 27.7007 32.9466 26.9244 34.023C26.5244 34.5597 26.0746 35.0685 25.5161 35.5063C24.9565 35.944 24.3224 36.3155 23.6066 36.5887C22.1457 37.1336 20.3668 37.2683 18.2001 36.8647C18.8805 35.0257 19.659 33.6231 20.5999 32.5022C21.5344 31.3835 22.5708 30.5486 23.649 29.9323C24.6969 29.3158 25.7663 28.9234 26.6715 28.6926C27.5766 28.4602 28.3169 28.3904 28.7035 28.3743Z" fill="url(#paint8_linear_537_1033)"/>
<path fill-rule="evenodd" clip-rule="evenodd" d="M9.64734 23.1961C9.73054 23.407 9.85306 23.8184 10.1677 24.2955C10.4533 24.7813 10.9092 25.3422 11.5665 25.9113C11.7326 26.0531 11.9232 26.1941 12.1171 26.3357C12.3098 26.4776 12.5207 26.6179 12.7509 26.7562C13.2105 27.0324 13.7559 27.2983 14.3609 27.5446C15.5834 28.0319 17.1783 28.4449 19.2061 28.5734C19.0972 27.6713 18.8852 26.8833 18.5609 26.2153C18.2611 25.5446 17.8424 24.9958 17.4082 24.5481C16.5089 23.6566 15.4561 23.1831 14.4033 22.9665C13.3563 22.7478 12.3552 22.7662 11.506 22.8585C10.6614 22.9502 9.99403 23.1075 9.64734 23.1961Z" fill="url(#paint9_linear_537_1033)"/>
<path fill-rule="evenodd" clip-rule="evenodd" d="M26.5919 18.5562C26.7074 18.9495 26.836 19.7282 26.8702 20.6948C26.8753 21.6646 26.7601 22.8266 26.3078 23.9596C26.1968 24.2424 26.0767 24.522 25.923 24.797C25.7681 25.072 25.5945 25.3406 25.4002 25.5996C25.0109 26.1178 24.5468 26.5958 23.9563 27.0102C22.788 27.8422 21.2521 28.3962 19.2061 28.5734C19.2691 27.6692 19.4154 26.859 19.5888 26.1211C19.7866 25.3814 20.0041 24.7174 20.2979 24.1069C20.8548 22.8923 21.6217 21.9006 22.418 21.1083C23.2203 20.3151 24.1024 19.717 24.8508 19.3056C25.6035 18.8914 26.2494 18.6594 26.5919 18.5562Z" fill="url(#paint10_linear_537_1033)"/>
<path fill-rule="evenodd" clip-rule="evenodd" d="M8.4526 18.3192C8.56786 18.5016 8.7754 18.8519 9.16656 19.2246C9.52656 19.6118 10.0653 20.0266 10.7772 20.4005C10.9581 20.4931 11.1566 20.5808 11.365 20.6652C11.568 20.7518 11.787 20.8328 12.0227 20.9072C12.4907 21.0573 13.0398 21.1759 13.6378 21.2627C14.8346 21.4324 16.3379 21.45 18.186 21.1084C18.0332 20.7194 17.8665 20.3609 17.6889 20.0324C17.5104 19.7041 17.2944 19.4143 17.086 19.1484C16.6739 18.6144 16.176 18.2169 15.6929 17.9096C15.2085 17.6022 14.6758 17.4101 14.1736 17.2845C13.6708 17.159 13.1577 17.1179 12.664 17.1294C11.6799 17.1508 10.7781 17.3786 10.0457 17.6318C9.31055 17.8875 8.74363 18.1676 8.4526 18.3192Z" fill="url(#paint11_linear_537_1033)"/>
<path fill-rule="evenodd" clip-rule="evenodd" d="M22.6385 10.6217C22.8128 10.9454 23.0911 11.6013 23.3225 12.4426C23.5237 13.2987 23.6698 14.3446 23.508 15.4467C23.4705 15.7207 23.4202 15.9951 23.3464 16.2707C23.2672 16.5481 23.17 16.8243 23.0527 17.0966C22.8143 17.6421 22.5081 18.1672 22.0761 18.664C21.2145 19.6599 19.9569 20.4973 18.186 21.1084C18.1094 20.6994 18.0601 20.3064 18.0341 19.9267C18.0072 19.5473 17.9769 19.1898 17.983 18.8388C18.0002 18.1349 18.045 17.4971 18.1772 16.8891C18.3085 16.2813 18.464 15.7292 18.687 15.2052C18.9093 14.6813 19.1592 14.2039 19.4336 13.7673C19.9854 12.8925 20.6419 12.1803 21.2354 11.6533C21.8253 11.1263 22.3529 10.786 22.6385 10.6217Z" fill="url(#paint12_linear_537_1033)"/>
<path fill-rule="evenodd" clip-rule="evenodd" d="M6.06879 13.6645C6.21037 13.8109 6.47871 14.0893 6.91193 14.3546C7.1243 14.491 7.36268 14.6368 7.65129 14.7627C7.79408 14.8268 7.95048 14.8852 8.11323 14.9421C8.27236 15.0017 8.44238 15.0558 8.6245 15.1036C9.36356 15.2867 10.2506 15.3919 11.3678 15.277C12.4814 15.1605 13.7946 14.8504 15.352 14.1292C14.4946 12.8701 13.4379 12.1728 12.4454 11.8349C11.4225 11.5145 10.4602 11.5411 9.57987 11.7647C7.84097 12.2018 6.53286 13.2806 6.06879 13.6645Z" fill="url(#paint13_linear_537_1033)"/>
<path fill-rule="evenodd" clip-rule="evenodd" d="M17.1184 3.95214C17.3317 4.20142 17.705 4.7136 18.0714 5.40063C18.2502 5.74732 18.4117 6.14967 18.5515 6.58016C18.6201 6.79646 18.684 7.01912 18.733 7.25206C18.7784 7.48773 18.8135 7.73005 18.8356 7.97752C18.9348 8.96011 18.779 10.0495 18.248 11.102C17.7168 12.1584 16.7748 13.1902 15.352 14.1292C14.7491 12.7343 14.4562 11.53 14.4296 10.401C14.3764 9.29469 14.593 8.26552 14.8985 7.38578C15.5238 5.60665 16.6752 4.35147 17.1184 3.95214Z" fill="url(#paint14_linear_537_1033)"/>
<path fill-rule="evenodd" clip-rule="evenodd" d="M3.61931 10.3286C3.76694 10.4462 4.06553 10.648 4.49814 10.8277C4.9135 11.0283 5.49041 11.1777 6.16775 11.2485C6.5096 11.2803 6.89472 11.2742 7.30736 11.234C7.71637 11.1971 8.16441 11.1151 8.65117 10.9735C9.62952 10.684 10.7419 10.1876 11.9959 9.28304C11.8739 9.16233 11.752 9.04858 11.6304 8.94148C11.5046 8.83802 11.3769 8.74303 11.251 8.65318C10.9987 8.47439 10.7486 8.32101 10.5017 8.19153C9.99679 7.94346 9.49913 7.79857 9.03053 7.72445C8.55315 7.65941 8.09301 7.67755 7.66645 7.74532C7.2402 7.81248 6.83996 7.93772 6.46393 8.10441C4.974 8.76331 3.97175 9.91803 3.61931 10.3286Z" fill="url(#paint15_linear_537_1033)"/>
<path fill-rule="evenodd" clip-rule="evenodd" d="M11.97 0C12.1891 0.192102 12.6014 0.572973 13.0225 1.12205C13.4252 1.69019 13.8632 2.39838 14.0822 3.26451C14.1954 3.69378 14.2716 4.14364 14.2725 4.62253C14.2701 5.10475 14.2035 5.60453 14.0532 6.11428C13.7597 7.13075 13.0985 8.20424 11.9959 9.28304C11.8987 9.14146 11.8085 9.00095 11.7238 8.86058C11.6348 8.72384 11.5501 8.58982 11.4721 8.45489C11.3154 8.18595 11.182 7.91882 11.0682 7.65381C10.8295 7.13499 10.6625 6.63098 10.5633 6.13182C10.4553 5.64173 10.4027 5.16828 10.4021 4.70542C10.4017 4.24195 10.4456 3.79755 10.5149 3.3843C10.7968 1.7165 11.6354 0.425044 11.97 0Z" fill="url(#paint16_linear_537_1033)"/>
<defs>
<linearGradient id="paint0_linear_537_1033" x1="23.0001" y1="2.99999" x2="29" y2="68.9998" gradientUnits="userSpaceOnUse">
<stop stop-color="#AAAAAA"/>
<stop offset="1" stop-color="#AAAAAA" stop-opacity="0"/>
</linearGradient>
<linearGradient id="paint1_linear_537_1033" x1="23.0001" y1="2.99999" x2="29" y2="68.9998" gradientUnits="userSpaceOnUse">
<stop stop-color="#AAAAAA"/>
<stop offset="1" stop-color="#AAAAAA" stop-opacity="0"/>
</linearGradient>
<linearGradient id="paint2_linear_537_1033" x1="23.0001" y1="2.99999" x2="29" y2="68.9998" gradientUnits="userSpaceOnUse">
<stop stop-color="#AAAAAA"/>
<stop offset="1" stop-color="#AAAAAA" stop-opacity="0"/>
</linearGradient>
<linearGradient id="paint3_linear_537_1033" x1="23.0001" y1="2.99999" x2="29" y2="68.9998" gradientUnits="userSpaceOnUse">
<stop stop-color="#AAAAAA"/>
<stop offset="1" stop-color="#AAAAAA" stop-opacity="0"/>
</linearGradient>
<linearGradient id="paint4_linear_537_1033" x1="23.0001" y1="2.99999" x2="29" y2="68.9998" gradientUnits="userSpaceOnUse">
<stop stop-color="#AAAAAA"/>
<stop offset="1" stop-color="#AAAAAA" stop-opacity="0"/>
</linearGradient>
<linearGradient id="paint5_linear_537_1033" x1="23.0001" y1="2.99999" x2="29" y2="68.9998" gradientUnits="userSpaceOnUse">
<stop stop-color="#AAAAAA"/>
<stop offset="1" stop-color="#AAAAAA" stop-opacity="0"/>
</linearGradient>
<linearGradient id="paint6_linear_537_1033" x1="23.0001" y1="2.99999" x2="29" y2="68.9998" gradientUnits="userSpaceOnUse">
<stop stop-color="#AAAAAA"/>
<stop offset="1" stop-color="#AAAAAA" stop-opacity="0"/>
</linearGradient>
<linearGradient id="paint7_linear_537_1033" x1="23.0001" y1="2.99999" x2="29" y2="68.9998" gradientUnits="userSpaceOnUse">
<stop stop-color="#AAAAAA"/>
<stop offset="1" stop-color="#AAAAAA" stop-opacity="0"/>
</linearGradient>
<linearGradient id="paint8_linear_537_1033" x1="23.0001" y1="2.99999" x2="29" y2="68.9998" gradientUnits="userSpaceOnUse">
<stop stop-color="#AAAAAA"/>
<stop offset="1" stop-color="#AAAAAA" stop-opacity="0"/>
</linearGradient>
<linearGradient id="paint9_linear_537_1033" x1="23.0001" y1="2.99999" x2="29" y2="68.9998" gradientUnits="userSpaceOnUse">
<stop stop-color="#AAAAAA"/>
<stop offset="1" stop-color="#AAAAAA" stop-opacity="0"/>
</linearGradient>
<linearGradient id="paint10_linear_537_1033" x1="23.0001" y1="2.99999" x2="29" y2="68.9998" gradientUnits="userSpaceOnUse">
<stop stop-color="#AAAAAA"/>
<stop offset="1" stop-color="#AAAAAA" stop-opacity="0"/>
</linearGradient>
<linearGradient id="paint11_linear_537_1033" x1="23.0001" y1="2.99999" x2="29" y2="68.9998" gradientUnits="userSpaceOnUse">
<stop stop-color="#AAAAAA"/>
<stop offset="1" stop-color="#AAAAAA" stop-opacity="0"/>
</linearGradient>
<linearGradient id="paint12_linear_537_1033" x1="23.0001" y1="2.99999" x2="29" y2="68.9998" gradientUnits="userSpaceOnUse">
<stop stop-color="#AAAAAA"/>
<stop offset="1" stop-color="#AAAAAA" stop-opacity="0"/>
</linearGradient>
<linearGradient id="paint13_linear_537_1033" x1="23.0001" y1="2.99999" x2="29" y2="68.9998" gradientUnits="userSpaceOnUse">
<stop stop-color="#AAAAAA"/>
<stop offset="1" stop-color="#AAAAAA" stop-opacity="0"/>
</linearGradient>
<linearGradient id="paint14_linear_537_1033" x1="23.0001" y1="2.99999" x2="29" y2="68.9998" gradientUnits="userSpaceOnUse">
<stop stop-color="#AAAAAA"/>
<stop offset="1" stop-color="#AAAAAA" stop-opacity="0"/>
</linearGradient>
<linearGradient id="paint15_linear_537_1033" x1="23.0001" y1="2.99999" x2="29" y2="68.9998" gradientUnits="userSpaceOnUse">
<stop stop-color="#AAAAAA"/>
<stop offset="1" stop-color="#AAAAAA" stop-opacity="0"/>
</linearGradient>
<linearGradient id="paint16_linear_537_1033" x1="23.0001" y1="2.99999" x2="29" y2="68.9998" gradientUnits="userSpaceOnUse">
<stop stop-color="#AAAAAA"/>
<stop offset="1" stop-color="#AAAAAA" stop-opacity="0"/>
</linearGradient>
</defs>
</svg>
