<svg width="36" height="36" viewBox="0 0 36 36" fill="none" xmlns="http://www.w3.org/2000/svg">
<rect width="36" height="36" rx="18" fill="#363638"/>
<path d="M10.616 26.9999C10.1553 26.9999 9.771 26.8459 9.463 26.5379C9.155 26.2299 9.00067 25.8456 9 25.3849V16.6149C9 16.1549 9.15433 15.7709 9.463 15.4629C9.77167 15.1549 10.1557 15.0006 10.615 14.9999H25.385C25.845 14.9999 26.229 15.1543 26.537 15.4629C26.845 15.7716 26.9993 16.1559 27 16.6159V25.3849C27 25.8449 26.8457 26.2293 26.537 26.5379C26.2283 26.8466 25.8443 27.0006 25.385 26.9999H10.616ZM10.616 25.9999H25.385C25.5383 25.9999 25.6793 25.9359 25.808 25.8079C25.9367 25.6799 26.0007 25.5386 26 25.3839V16.6159C26 16.4619 25.936 16.3206 25.808 16.1919C25.68 16.0633 25.539 15.9993 25.385 15.9999H10.615C10.4617 15.9999 10.3207 16.0639 10.192 16.1919C10.0633 16.3199 9.99933 16.4613 10 16.6159V25.3849C10 25.5383 10.064 25.6793 10.192 25.8079C10.32 25.9366 10.461 26.0006 10.615 25.9999M10.5 13.2309V12.2309H25.5V13.2309H10.5ZM13.5 10.4609V9.46094H22.5V10.4609H13.5Z" fill="#E72D38"/>
<path fill-rule="evenodd" clip-rule="evenodd" d="M22.5239 17.1678C22.7986 17.4106 22.8243 17.8308 22.5815 18.1073L17.4848 23.8688C17.4259 23.9354 17.3543 23.9895 17.2742 24.0279C17.1941 24.0663 17.1071 24.0882 17.0183 24.0925C16.9296 24.0967 16.8409 24.0831 16.7575 24.0524C16.6741 24.0218 16.5977 23.9747 16.5328 23.914L13.2089 20.8117C13.081 20.6912 13.006 20.525 13.0003 20.3493C12.9947 20.1737 13.0588 20.003 13.1786 19.8745C13.2984 19.746 13.4643 19.6702 13.6399 19.6636C13.8154 19.657 13.9865 19.7202 14.1156 19.8393L16.9432 22.4719L21.5878 17.2245C21.6458 17.159 21.716 17.1055 21.7946 17.0672C21.8732 17.0289 21.9586 17.0065 22.0459 17.0012C22.1331 16.9959 22.2206 17.0079 22.3032 17.0365C22.3859 17.0651 22.462 17.1097 22.5274 17.1678H22.5239Z" fill="#E72D38"/>
</svg>
