<svg width="36" height="36" viewBox="0 0 36 36" fill="none" xmlns="http://www.w3.org/2000/svg">
<rect width="36" height="36" rx="18" fill="#363638"/>
<path fill-rule="evenodd" clip-rule="evenodd" d="M15.9444 9.25H20.0564C21.8944 9.25 23.3504 9.25 24.4894 9.403C25.6614 9.561 26.6104 9.893 27.3594 10.641C28.1074 11.39 28.4394 12.339 28.5974 13.511C28.6874 14.184 28.7244 14.967 28.7394 15.874C28.7518 15.9501 28.7531 16.0275 28.7434 16.104C28.7494 16.6693 28.7517 17.2827 28.7504 17.944V18.056C28.7504 19.894 28.7504 21.35 28.5974 22.489C28.4394 23.661 28.1074 24.61 27.3594 25.359C26.6104 26.107 25.6614 26.439 24.4894 26.597C23.3494 26.75 21.8944 26.75 20.0564 26.75H15.9444C14.1064 26.75 12.6504 26.75 11.5114 26.597C10.3394 26.439 9.39036 26.107 8.64136 25.359C7.89336 24.61 7.56136 23.661 7.40336 22.489C7.25036 21.349 7.25036 19.894 7.25036 18.056V17.944C7.24903 17.2827 7.25136 16.6693 7.25736 16.104C7.24728 16.0276 7.24829 15.9501 7.26036 15.874C7.27636 14.967 7.31336 14.184 7.40336 13.511C7.56136 12.339 7.89336 11.39 8.64136 10.641C9.39036 9.893 10.3394 9.561 11.5114 9.403C12.6514 9.25 14.1064 9.25 15.9444 9.25ZM8.75236 16.75C8.75103 17.138 8.75036 17.5547 8.75036 18C8.75036 19.907 8.75236 21.262 8.89036 22.29C9.02536 23.295 9.27936 23.875 9.70236 24.298C10.1254 24.721 10.7054 24.975 11.7114 25.11C12.7394 25.248 14.0934 25.25 16.0004 25.25H20.0004C21.9074 25.25 23.2624 25.248 24.2904 25.11C25.2954 24.975 25.8754 24.721 26.2984 24.298C26.7214 23.875 26.9754 23.295 27.1104 22.289C27.2484 21.261 27.2504 19.907 27.2504 18C27.2504 17.5547 27.2497 17.138 27.2484 16.75H8.75236ZM27.2244 15.25H8.77636C8.79636 14.663 8.83036 14.156 8.89036 13.71C9.02536 12.705 9.27936 12.125 9.70236 11.702C10.1254 11.279 10.7054 11.025 11.7114 10.89C12.7394 10.752 14.0934 10.75 16.0004 10.75H20.0004C21.9074 10.75 23.2624 10.752 24.2904 10.89C25.2954 11.025 25.8754 11.279 26.2984 11.702C26.7214 12.125 26.9754 12.705 27.1104 13.711C27.1704 14.156 27.2044 14.663 27.2244 15.25ZM11.2504 22C11.2504 21.8011 11.3294 21.6103 11.47 21.4697C11.6107 21.329 11.8015 21.25 12.0004 21.25H16.0004C16.1993 21.25 16.39 21.329 16.5307 21.4697C16.6713 21.6103 16.7504 21.8011 16.7504 22C16.7504 22.1989 16.6713 22.3897 16.5307 22.5303C16.39 22.671 16.1993 22.75 16.0004 22.75H12.0004C11.8015 22.75 11.6107 22.671 11.47 22.5303C11.3294 22.3897 11.2504 22.1989 11.2504 22ZM17.7504 22C17.7504 21.8011 17.8294 21.6103 17.97 21.4697C18.1107 21.329 18.3015 21.25 18.5004 21.25H20.0004C20.1993 21.25 20.39 21.329 20.5307 21.4697C20.6713 21.6103 20.7504 21.8011 20.7504 22C20.7504 22.1989 20.6713 22.3897 20.5307 22.5303C20.39 22.671 20.1993 22.75 20.0004 22.75H18.5004C18.3015 22.75 18.1107 22.671 17.97 22.5303C17.8294 22.3897 17.7504 22.1989 17.7504 22Z" fill="#E72D38"/>
</svg>
