<svg width="40" height="40" viewBox="0 0 40 40" fill="none" xmlns="http://www.w3.org/2000/svg">
<path d="M7.33562 34.3458H32.4356C35.0023 34.3458 36.6023 31.5625 35.319 29.3458L22.769 7.6625C21.4856 5.44583 18.2856 5.44583 17.0023 7.6625L4.45229 29.3458C3.16895 31.5625 4.76895 34.3458 7.33562 34.3458ZM19.8856 22.6792C18.969 22.6792 18.219 21.9292 18.219 21.0125V17.6792C18.219 16.7625 18.969 16.0125 19.8856 16.0125C20.8023 16.0125 21.5523 16.7625 21.5523 17.6792V21.0125C21.5523 21.9292 20.8023 22.6792 19.8856 22.6792ZM21.5523 29.3458H18.219V26.0125H21.5523V29.3458Z" fill="#EE8D31"/>
</svg>
