<svg width="233" height="225" viewBox="0 0 233 225" fill="none" xmlns="http://www.w3.org/2000/svg">
<rect x="18.3926" y="111.516" width="183.142" height="63.4283" rx="5.43" transform="rotate(-20.4554 18.3926 111.516)" fill="#E72D38"/>
<line x1="176.876" y1="54.7518" x2="116.913" y2="30.1455" stroke="#E72D38" stroke-width="2.85713"/>
<line x1="42.9453" y1="105.563" x2="116.416" y2="27.8432" stroke="#E72D38" stroke-width="2.85713"/>
<rect x="25.8164" y="111.796" width="173.428" height="53.7141" rx="4.29" transform="rotate(-20.4554 25.8164 111.796)" fill="#0D0D0D"/>
<path d="M54.3446 124.8C54.5402 124.605 54.8604 124.351 55.305 124.039C55.763 123.698 56.2491 123.431 56.763 123.239C57.6625 122.904 58.464 122.763 59.1675 122.818C59.863 122.851 60.3708 123.101 60.691 123.567C61.2541 124.357 61.7758 125.102 62.2561 125.801C62.7499 126.471 63.2249 127.123 63.6813 127.758C64.1296 128.371 64.5673 128.989 64.9942 129.61C65.4426 130.223 65.8922 130.873 66.3431 131.559L66.5037 131.499C66.2092 130.12 65.9172 128.814 65.6278 127.581C65.3304 126.325 65.0342 125.106 64.7394 123.923C64.4365 122.719 64.1416 121.536 63.8547 120.374C63.5599 119.191 63.261 117.998 62.9581 116.793C63.5828 116.048 64.3448 115.508 65.2443 115.172C66.0367 114.877 66.7859 114.792 67.4919 114.919C68.198 115.046 68.7027 115.517 69.0063 116.331C69.182 116.802 69.3801 117.496 69.6005 118.414C69.8344 119.303 70.0654 120.314 70.2934 121.449C70.5429 122.576 70.7803 123.768 71.0055 125.026C71.2306 126.284 71.4251 127.492 71.589 128.65C71.7528 129.809 71.87 130.875 71.9405 131.849C72.0244 132.794 72.0472 133.542 72.0088 134.093C71.7994 134.512 71.3666 134.954 70.7103 135.419C70.0541 135.883 69.3405 136.259 68.5695 136.546C67.563 136.922 66.6584 137.113 65.8558 137.119C65.0667 137.097 64.5053 136.867 64.1716 136.43C63.5737 135.678 62.8945 134.772 62.1339 133.714C61.3733 132.656 60.5474 131.488 59.6561 130.211C59.8755 131.714 60.0722 133.19 60.2462 134.638C60.4202 136.085 60.5505 137.317 60.637 138.334C60.4276 138.754 60.0376 139.18 59.467 139.612C58.8964 140.045 58.2257 140.405 57.4547 140.692C56.491 141.052 55.565 141.251 54.6768 141.289C53.802 141.298 53.1549 141.101 52.7356 140.696C52.3991 140.382 51.9732 139.895 51.4581 139.233C50.9564 138.542 50.408 137.758 49.8129 136.883C49.2099 135.985 48.5682 135.017 47.8879 133.978C47.2289 132.931 46.5807 131.88 45.9432 130.824C45.3271 129.761 44.7336 128.726 44.1629 127.719C43.5842 126.691 43.0843 125.743 42.6631 124.876C42.8591 124.485 43.1808 124.073 43.6284 123.637C44.0759 123.202 44.6102 122.869 45.2312 122.637C46.045 122.334 46.7768 122.268 47.4266 122.44C48.0898 122.583 48.6414 123.048 49.0814 123.836C50.2389 125.892 51.1963 127.609 51.9536 128.985C52.7324 130.354 53.3617 131.485 53.8417 132.379C54.3351 133.244 54.7098 133.922 54.9657 134.412C55.2217 134.902 55.4377 135.285 55.6138 135.561L55.7744 135.501C55.6476 134.572 55.5341 133.712 55.4338 132.92C55.3336 132.128 55.2333 131.336 55.133 130.544C55.0462 129.722 54.9434 128.858 54.8246 127.951C54.6978 127.022 54.5378 125.972 54.3446 124.8ZM72.4227 116.044C72.0792 115.123 72.0753 114.295 72.411 113.56C72.7467 112.825 73.375 112.286 74.2959 111.942L84.8967 107.988C85.1345 108.168 85.3788 108.431 85.6297 108.776C85.902 109.114 86.118 109.497 86.2777 109.925C86.5813 110.739 86.6149 111.385 86.3787 111.863C86.1638 112.334 85.7673 112.677 85.1891 112.892L78.411 115.421L79.5253 118.408L86.7531 115.712C86.9909 115.892 87.2352 116.155 87.4861 116.5C87.7504 116.816 87.9624 117.188 88.1222 117.617C88.4257 118.431 88.4701 119.073 88.2552 119.543C88.0404 120.014 87.6438 120.357 87.0656 120.572L81.1548 122.777L82.413 126.15L90.6688 123.071C90.9065 123.25 91.1509 123.513 91.4017 123.858C91.674 124.196 91.89 124.579 92.0498 125.007C92.3533 125.821 92.391 126.478 92.1627 126.978C91.9478 127.448 91.5513 127.791 90.9731 128.007L81.593 131.506C80.6721 131.849 79.8441 131.853 79.109 131.517C78.3739 131.182 77.8346 130.553 77.4911 129.633L72.4227 116.044ZM99.192 124.941C98.2711 125.285 97.4431 125.289 96.708 124.953C95.9729 124.617 95.4336 123.989 95.0901 123.068L88.8954 106.46C89.115 106.329 89.4698 106.136 89.9598 105.88C90.4419 105.603 90.9185 105.376 91.3896 105.201C91.8822 105.017 92.3265 104.9 92.7225 104.85C93.1319 104.77 93.5011 104.779 93.83 104.876C94.1589 104.973 94.4514 105.168 94.7077 105.463C94.9641 105.758 95.196 106.184 95.4037 106.74L100.137 119.429L107.493 116.685C107.731 116.865 107.99 117.134 108.27 117.493C108.542 117.831 108.758 118.214 108.918 118.642C109.238 119.499 109.283 120.177 109.055 120.677C108.819 121.155 108.401 121.506 107.801 121.73L99.192 124.941ZM115.793 100.929C114.144 101.544 113.068 102.518 112.565 103.852C112.063 105.186 112.155 106.774 112.842 108.616C113.537 110.479 114.554 111.734 115.893 112.381C117.253 113.02 118.758 113.032 120.407 112.417C121.285 112.09 121.98 111.696 122.492 111.237C123.025 110.77 123.514 110.283 123.959 109.775C124.435 109.939 124.849 110.199 125.202 110.556C125.568 110.883 125.855 111.325 126.062 111.882C126.39 112.76 126.177 113.693 125.423 114.681C124.683 115.64 123.317 116.491 121.326 117.234C119.891 117.77 118.466 118.069 117.05 118.134C115.635 118.198 114.301 117.988 113.047 117.505C111.785 117 110.636 116.208 109.6 115.131C108.577 114.024 107.73 112.572 107.059 110.773C106.436 109.102 106.146 107.539 106.189 106.084C106.245 104.6 106.559 103.25 107.131 102.037C107.724 100.815 108.547 99.7521 109.6 98.8471C110.653 97.942 111.876 97.2299 113.268 96.7106C115.238 95.9757 116.879 95.7298 118.189 95.9729C119.521 96.208 120.374 96.8288 120.75 97.8353C120.958 98.3922 120.998 98.9259 120.871 99.4367C120.745 99.9474 120.543 100.388 120.267 100.76C119.575 100.603 118.859 100.517 118.121 100.499C117.404 100.474 116.628 100.617 115.793 100.929ZM125.098 104.045C124.475 102.374 124.18 100.801 124.215 99.3239C124.271 97.8392 124.589 96.5008 125.169 95.3087C125.763 94.0872 126.586 93.0239 127.639 92.1188C128.713 91.2058 129.968 90.4817 131.403 89.9465C132.837 89.4113 134.249 89.1409 135.637 89.1353C137.047 89.1217 138.376 89.3822 139.625 89.9168C140.865 90.4299 141.982 91.2331 142.975 92.3264C143.99 93.4116 144.809 94.7894 145.432 96.4599C146.055 98.1303 146.353 99.7146 146.326 101.213C146.292 102.689 145.978 104.038 145.384 105.26C144.804 106.452 143.977 107.505 142.903 108.418C141.829 109.331 140.563 110.059 139.107 110.602C137.651 111.145 136.218 111.424 134.808 111.437C133.39 111.429 132.067 111.154 130.841 110.612C129.614 110.069 128.503 109.251 127.51 108.158C126.517 107.065 125.713 105.694 125.098 104.045ZM130.88 101.888C131.607 103.837 132.546 105.145 133.698 105.813C134.85 106.481 136.09 106.568 137.417 106.073C138.767 105.569 139.658 104.688 140.091 103.429C140.524 102.17 140.377 100.565 139.65 98.6166C138.931 96.6892 137.995 95.3914 136.844 94.7233C135.713 94.0471 134.473 93.9607 133.124 94.4639C131.796 94.9592 130.905 95.8405 130.451 97.1077C130.01 98.3456 130.153 99.9389 130.88 101.888ZM163.871 95.254C163.681 95.5934 163.389 95.9219 162.995 96.2396C162.614 96.5278 162.135 96.7798 161.557 96.9955C160.786 97.2831 160.107 97.4263 159.522 97.4253C158.957 97.4163 158.512 97.2042 158.186 96.7889C156.884 95.128 155.824 93.7912 155.007 92.7785C154.182 91.7444 153.499 90.8283 152.958 90.0302L152.797 90.0901C153.204 91.3776 153.582 92.554 153.93 93.6193C154.292 94.6553 154.646 95.6698 154.992 96.6629C155.36 97.6481 155.71 98.6519 156.043 99.6744C156.397 100.689 156.769 101.819 157.16 103.063C156.922 103.274 156.59 103.496 156.164 103.728C155.746 103.981 155.312 104.192 154.863 104.359C153.92 104.711 153.125 104.836 152.478 104.736C151.852 104.628 151.392 104.178 151.096 103.386L145.917 86.655C145.984 86.3127 146.247 85.8731 146.706 85.3362C147.164 84.7993 147.918 84.3351 148.967 83.9437C150.102 83.5203 151.059 83.3709 151.837 83.4953C152.608 83.5983 153.29 83.9901 153.886 84.6706C154.27 85.1127 154.693 85.6258 155.155 86.2098C155.638 86.7858 156.119 87.3872 156.597 88.0141C157.096 88.6329 157.584 89.2558 158.062 89.8826C158.532 90.488 158.956 91.0372 159.335 91.5301L159.496 91.4702C159.339 89.4796 159.206 87.5532 159.097 85.691C158.98 83.8075 158.924 82.2183 158.929 80.9235C159.186 80.6323 159.541 80.3414 159.993 80.0506C160.46 79.7304 161.003 79.4544 161.624 79.2228C162.674 78.8314 163.59 78.6725 164.374 78.7461C165.15 78.7983 165.699 79.0935 166.022 79.6318C166.267 80.0281 166.6 80.6601 167.021 81.5276C167.456 82.3657 167.934 83.3216 168.457 84.3953C168.979 85.469 169.526 86.6069 170.096 87.8091C170.667 89.0112 171.21 90.1746 171.727 91.2991C172.258 92.3942 172.735 93.4116 173.159 94.3513C173.574 95.2697 173.889 95.9818 174.102 96.4878C173.818 96.8378 173.488 97.1315 173.113 97.3689C172.768 97.6198 172.284 97.861 171.663 98.0927C170.849 98.3962 170.112 98.5127 169.452 98.4419C168.791 98.3712 168.287 97.9369 167.941 97.1391C166.942 94.8527 166.073 92.7859 165.336 90.9387C164.619 89.0835 163.993 87.5362 163.458 86.2966L163.297 86.3565C163.394 87.2716 163.475 88.4368 163.54 89.8521C163.604 91.2674 163.715 93.068 163.871 95.254ZM171.649 79.0332C171.305 78.1123 171.301 77.2844 171.637 76.5493C171.973 75.8142 172.601 75.2749 173.522 74.9314L184.123 70.9773C184.36 71.157 184.605 71.4196 184.855 71.7651C185.128 72.1027 185.344 72.4856 185.504 72.9139C185.807 73.7277 185.841 74.3738 185.604 74.8523C185.39 75.3228 184.993 75.6658 184.415 75.8815L177.637 78.4097L178.751 81.3972L185.979 78.7013C186.217 78.8809 186.461 79.1435 186.712 79.4891C186.976 79.8052 187.188 80.1774 187.348 80.6057C187.652 81.4195 187.696 82.0617 187.481 82.5321C187.266 83.0026 186.87 83.3457 186.291 83.5613L180.381 85.766L181.639 89.139L189.895 86.0596C190.132 86.2393 190.377 86.5019 190.628 86.8474C190.9 87.185 191.116 87.5679 191.276 87.9963C191.579 88.8101 191.617 89.4669 191.389 89.9667C191.174 90.4372 190.777 90.7803 190.199 90.996L180.819 94.4947C179.898 94.8382 179.07 94.8421 178.335 94.5064C177.6 94.1707 177.06 93.5424 176.717 92.6215L171.649 79.0332Z" fill="#E72D38"/>
<circle cx="115.598" cy="29.2105" r="6.715" transform="rotate(-20.4554 115.598 29.2105)" fill="#E72D38"/>
<line x1="132.959" y1="147.81" x2="138.594" y2="161.388" stroke="#E72D38" stroke-opacity="0.6" stroke-width="3" stroke-linecap="round"/>
<line x1="185.106" y1="122.865" x2="192.233" y2="129.132" stroke="#E72D38" stroke-opacity="0.6" stroke-width="3" stroke-linecap="round"/>
<line x1="71.9734" y1="165.567" x2="71.5668" y2="174.408" stroke="#E72D38" stroke-opacity="0.6" stroke-width="3" stroke-linecap="round"/>
</svg>
